G04*
G04 #@! TF.GenerationSoftware,Altium Limited,Altium Designer,20.0.2 (26)*
G04*
G04 Layer_Physical_Order=2*
G04 Layer_Color=16711680*
%FSLAX44Y44*%
%MOMM*%
G71*
G01*
G75*
%ADD14C,0.2540*%
%ADD27C,1.1000*%
%ADD28R,1.1000X1.1000*%
%ADD29C,1.5700*%
%ADD38R,1.5000X1.5000*%
%ADD39C,1.5000*%
%ADD40R,2.0000X2.0000*%
%ADD41C,2.0000*%
%ADD42C,2.2888*%
%ADD43O,2.5000X1.4000*%
%ADD44R,2.5000X1.4000*%
%ADD45C,1.5240*%
%ADD46C,0.6000*%
G36*
X838200Y828040D02*
X417830D01*
Y1276350D01*
X838200D01*
Y828040D01*
D02*
G37*
%LPC*%
G36*
X533400Y1263183D02*
X531635Y1262831D01*
X530138Y1261832D01*
X529863Y1261419D01*
X446695D01*
X446694Y1261419D01*
X445604Y1261202D01*
X444680Y1260584D01*
X442915Y1258819D01*
X442761Y1258937D01*
X440537Y1259859D01*
X438150Y1260173D01*
X435763Y1259859D01*
X433539Y1258937D01*
X431628Y1257472D01*
X430163Y1255561D01*
X429241Y1253337D01*
X428927Y1250950D01*
X429241Y1248563D01*
X430163Y1246339D01*
X431628Y1244428D01*
X433539Y1242963D01*
X435763Y1242041D01*
X438150Y1241727D01*
X440537Y1242041D01*
X442761Y1242963D01*
X444672Y1244428D01*
X446137Y1246339D01*
X447059Y1248563D01*
X447373Y1250950D01*
X447059Y1253337D01*
X446599Y1254446D01*
X447874Y1255721D01*
X529863D01*
X530138Y1255308D01*
X531635Y1254308D01*
X533400Y1253957D01*
X535165Y1254308D01*
X536662Y1255308D01*
X537662Y1256805D01*
X537666Y1256825D01*
X549486D01*
Y1251259D01*
X497567D01*
X497292Y1251672D01*
X495795Y1252672D01*
X494030Y1253023D01*
X492265Y1252672D01*
X490768Y1251672D01*
X489768Y1250175D01*
X489417Y1248410D01*
X489768Y1246645D01*
X490768Y1245148D01*
X492265Y1244148D01*
X494030Y1243797D01*
X495795Y1244148D01*
X497292Y1245148D01*
X497567Y1245561D01*
X549486D01*
Y1235356D01*
X560606D01*
X560689Y1234086D01*
X560117Y1234011D01*
X557736Y1233697D01*
X554686Y1232434D01*
X552066Y1230424D01*
X550056Y1227804D01*
X548793Y1224754D01*
X548529Y1222750D01*
X573491D01*
X573227Y1224754D01*
X571964Y1227804D01*
X569953Y1230424D01*
X567334Y1232434D01*
X564283Y1233697D01*
X561903Y1234011D01*
X561331Y1234086D01*
X561414Y1235356D01*
X572534D01*
Y1256825D01*
X801036D01*
X805042Y1252820D01*
X804944Y1252692D01*
X803783Y1249888D01*
X803387Y1246880D01*
X803783Y1243872D01*
X804944Y1241068D01*
X806791Y1238661D01*
X809198Y1236814D01*
X812001Y1235653D01*
X814325Y1235347D01*
X814430Y1235333D01*
Y1234052D01*
X814325Y1234038D01*
X811736Y1233697D01*
X808686Y1232434D01*
X806066Y1230424D01*
X804056Y1227804D01*
X802793Y1224754D01*
X802529Y1222750D01*
X827491D01*
X827227Y1224754D01*
X825964Y1227804D01*
X823953Y1230424D01*
X821334Y1232434D01*
X818283Y1233697D01*
X815695Y1234038D01*
X815590Y1234052D01*
Y1235333D01*
X815695Y1235347D01*
X818018Y1235653D01*
X820822Y1236814D01*
X823229Y1238661D01*
X825076Y1241068D01*
X826237Y1243872D01*
X826633Y1246880D01*
X826237Y1249888D01*
X825076Y1252692D01*
X823229Y1255099D01*
X820822Y1256946D01*
X818018Y1258107D01*
X815010Y1258503D01*
X812001Y1258107D01*
X809198Y1256946D01*
X809070Y1256848D01*
X804230Y1261688D01*
X803306Y1262306D01*
X802216Y1262523D01*
X802216Y1262523D01*
X535627D01*
X535165Y1262831D01*
X533400Y1263183D01*
D02*
G37*
G36*
X471170Y1230782D02*
Y1221740D01*
X480213D01*
X480023Y1223182D01*
X478976Y1225710D01*
X477310Y1227880D01*
X475140Y1229546D01*
X472612Y1230593D01*
X471170Y1230782D01*
D02*
G37*
G36*
X468630D02*
X467188Y1230593D01*
X464660Y1229546D01*
X462490Y1227880D01*
X460824Y1225710D01*
X459777Y1223182D01*
X459588Y1221740D01*
X468630D01*
Y1230782D01*
D02*
G37*
G36*
X519430Y1227385D02*
X516983Y1227063D01*
X514703Y1226118D01*
X512744Y1224616D01*
X511242Y1222657D01*
X510464Y1220779D01*
X500380D01*
X500380Y1220779D01*
X499290Y1220562D01*
X498366Y1219944D01*
X498366Y1219944D01*
X486936Y1208514D01*
X486318Y1207590D01*
X486101Y1206500D01*
X486101Y1206500D01*
Y1078140D01*
X464910Y1056949D01*
X455506D01*
X454906Y1058399D01*
X453539Y1060179D01*
X451759Y1061546D01*
X449685Y1062405D01*
X447460Y1062698D01*
X436460D01*
X434235Y1062405D01*
X432161Y1061546D01*
X430381Y1060179D01*
X429569Y1059121D01*
X428299Y1059552D01*
Y1074048D01*
X429569Y1074479D01*
X430381Y1073421D01*
X432161Y1072054D01*
X434235Y1071195D01*
X436460Y1070902D01*
X447460D01*
X449685Y1071195D01*
X451759Y1072054D01*
X453539Y1073421D01*
X454906Y1075201D01*
X455765Y1077275D01*
X456058Y1079500D01*
X455765Y1081725D01*
X454906Y1083799D01*
X453539Y1085579D01*
X451759Y1086946D01*
X449685Y1087805D01*
X447460Y1088098D01*
X436460D01*
X434235Y1087805D01*
X432161Y1086946D01*
X430381Y1085579D01*
X429569Y1084521D01*
X428299Y1084952D01*
Y1099448D01*
X429569Y1099879D01*
X430381Y1098821D01*
X432161Y1097454D01*
X434235Y1096595D01*
X436460Y1096302D01*
X447460D01*
X449685Y1096595D01*
X451759Y1097454D01*
X453539Y1098821D01*
X454906Y1100601D01*
X455765Y1102675D01*
X456058Y1104900D01*
X455765Y1107125D01*
X454906Y1109199D01*
X453539Y1110979D01*
X451759Y1112346D01*
X449685Y1113205D01*
X447460Y1113497D01*
X436460D01*
X434235Y1113205D01*
X432161Y1112346D01*
X430381Y1110979D01*
X429569Y1109921D01*
X428299Y1110352D01*
Y1154520D01*
X446950Y1173171D01*
X463474D01*
X464252Y1171293D01*
X465754Y1169334D01*
X467713Y1167832D01*
X469993Y1166887D01*
X472440Y1166565D01*
X474887Y1166887D01*
X477167Y1167832D01*
X479126Y1169334D01*
X480628Y1171293D01*
X481573Y1173573D01*
X481895Y1176020D01*
X481573Y1178467D01*
X480628Y1180747D01*
X479126Y1182706D01*
X477167Y1184208D01*
X474887Y1185153D01*
X472440Y1185475D01*
X469993Y1185153D01*
X467713Y1184208D01*
X465754Y1182706D01*
X464252Y1180747D01*
X463474Y1178869D01*
X445770D01*
X445770Y1178869D01*
X444680Y1178652D01*
X443756Y1178034D01*
X443756Y1178034D01*
X423436Y1157714D01*
X422818Y1156790D01*
X422601Y1155700D01*
X422601Y1155700D01*
Y1019810D01*
X422601Y1019810D01*
X422818Y1018720D01*
X423436Y1017796D01*
X430532Y1010699D01*
X430449Y1009432D01*
X430381Y1009379D01*
X429014Y1007599D01*
X428155Y1005525D01*
X427862Y1003300D01*
X428155Y1001075D01*
X429014Y999001D01*
X430381Y997221D01*
X432161Y995854D01*
X434235Y994995D01*
X436460Y994703D01*
X447460D01*
X449685Y994995D01*
X451759Y995854D01*
X453539Y997221D01*
X454906Y999001D01*
X455506Y1000451D01*
X481603D01*
X481878Y1000038D01*
X483375Y999038D01*
X485140Y998687D01*
X486905Y999038D01*
X488402Y1000038D01*
X489402Y1001535D01*
X489753Y1003300D01*
X489402Y1005065D01*
X488402Y1006562D01*
X486905Y1007561D01*
X485140Y1007913D01*
X483375Y1007561D01*
X481878Y1006562D01*
X481603Y1006149D01*
X455506D01*
X454906Y1007599D01*
X453539Y1009379D01*
X451759Y1010746D01*
X449685Y1011605D01*
X447460Y1011898D01*
X436936D01*
X436899Y1012083D01*
X436282Y1013007D01*
X436282Y1013007D01*
X428299Y1020990D01*
Y1023248D01*
X429569Y1023679D01*
X430381Y1022621D01*
X432161Y1021254D01*
X434235Y1020395D01*
X436460Y1020102D01*
X447460D01*
X449685Y1020395D01*
X451759Y1021254D01*
X453539Y1022621D01*
X454906Y1024401D01*
X455765Y1026475D01*
X456058Y1028700D01*
X455765Y1030925D01*
X454906Y1032999D01*
X453539Y1034779D01*
X451759Y1036146D01*
X449685Y1037005D01*
X447460Y1037298D01*
X436460D01*
X434235Y1037005D01*
X432161Y1036146D01*
X430381Y1034779D01*
X429569Y1033721D01*
X428299Y1034152D01*
Y1048648D01*
X429569Y1049079D01*
X430381Y1048021D01*
X432161Y1046654D01*
X434235Y1045795D01*
X436460Y1045502D01*
X447460D01*
X449685Y1045795D01*
X451759Y1046654D01*
X453539Y1048021D01*
X454906Y1049801D01*
X455506Y1051251D01*
X466090D01*
X466090Y1051251D01*
X467180Y1051468D01*
X468104Y1052086D01*
X490964Y1074946D01*
X490964Y1074946D01*
X491582Y1075870D01*
X491799Y1076960D01*
Y1205320D01*
X501560Y1215081D01*
X510464D01*
X511242Y1213203D01*
X512744Y1211244D01*
X514703Y1209742D01*
X516983Y1208797D01*
X519430Y1208475D01*
X521877Y1208797D01*
X524157Y1209742D01*
X526116Y1211244D01*
X527618Y1213203D01*
X528563Y1215483D01*
X528885Y1217930D01*
X528563Y1220377D01*
X527618Y1222657D01*
X526116Y1224616D01*
X524157Y1226118D01*
X521877Y1227063D01*
X519430Y1227385D01*
D02*
G37*
G36*
X439420Y1236043D02*
X437033Y1235729D01*
X434809Y1234807D01*
X432898Y1233342D01*
X431433Y1231431D01*
X430511Y1229207D01*
X430197Y1226820D01*
X430511Y1224433D01*
X431433Y1222209D01*
X432898Y1220298D01*
X434809Y1218833D01*
X437033Y1217911D01*
X439420Y1217597D01*
X441807Y1217911D01*
X444031Y1218833D01*
X445942Y1220298D01*
X447407Y1222209D01*
X448329Y1224433D01*
X448643Y1226820D01*
X448329Y1229207D01*
X447407Y1231431D01*
X445942Y1233342D01*
X444031Y1234807D01*
X441807Y1235729D01*
X439420Y1236043D01*
D02*
G37*
G36*
X480213Y1219200D02*
X471170D01*
Y1210157D01*
X472612Y1210347D01*
X475140Y1211394D01*
X477310Y1213060D01*
X478976Y1215230D01*
X480023Y1217758D01*
X480213Y1219200D01*
D02*
G37*
G36*
X468630D02*
X459588D01*
X459777Y1217758D01*
X460824Y1215230D01*
X462490Y1213060D01*
X464660Y1211394D01*
X467188Y1210347D01*
X468630Y1210157D01*
Y1219200D01*
D02*
G37*
G36*
X441960Y1207691D02*
Y1198880D01*
X450770D01*
X450588Y1200262D01*
X449565Y1202734D01*
X447936Y1204856D01*
X445814Y1206485D01*
X443342Y1207508D01*
X441960Y1207691D01*
D02*
G37*
G36*
X439420D02*
X438038Y1207508D01*
X435566Y1206485D01*
X433444Y1204856D01*
X431815Y1202734D01*
X430792Y1200262D01*
X430610Y1198880D01*
X439420D01*
Y1207691D01*
D02*
G37*
G36*
X450770Y1196340D02*
X441960D01*
Y1187530D01*
X443342Y1187711D01*
X445814Y1188735D01*
X447936Y1190364D01*
X449565Y1192486D01*
X450588Y1194958D01*
X450770Y1196340D01*
D02*
G37*
G36*
X439420D02*
X430610D01*
X430792Y1194958D01*
X431815Y1192486D01*
X433444Y1190364D01*
X435566Y1188735D01*
X438038Y1187711D01*
X439420Y1187530D01*
Y1196340D01*
D02*
G37*
G36*
X827491Y1220210D02*
X802529D01*
X802793Y1218206D01*
X804056Y1215156D01*
X806066Y1212536D01*
X808686Y1210526D01*
X811736Y1209263D01*
X814325Y1208922D01*
X814430Y1208908D01*
Y1207627D01*
X814325Y1207613D01*
X812001Y1207307D01*
X809198Y1206146D01*
X806791Y1204299D01*
X804944Y1201892D01*
X803783Y1199088D01*
X803387Y1196080D01*
X803783Y1193072D01*
X804944Y1190268D01*
X806791Y1187861D01*
X809198Y1186014D01*
X812001Y1184853D01*
X815010Y1184457D01*
X818018Y1184853D01*
X820822Y1186014D01*
X823229Y1187861D01*
X825076Y1190268D01*
X826237Y1193072D01*
X826633Y1196080D01*
X826237Y1199088D01*
X825076Y1201892D01*
X823229Y1204299D01*
X820822Y1206146D01*
X818018Y1207307D01*
X815695Y1207613D01*
X815590Y1207627D01*
Y1208908D01*
X815695Y1208922D01*
X818283Y1209263D01*
X821334Y1210526D01*
X823953Y1212536D01*
X825964Y1215156D01*
X827227Y1218206D01*
X827491Y1220210D01*
D02*
G37*
G36*
X573491D02*
X548529D01*
X548793Y1218206D01*
X550056Y1215156D01*
X552066Y1212536D01*
X554686Y1210526D01*
X557736Y1209263D01*
X560325Y1208922D01*
X560430Y1208908D01*
Y1207627D01*
X560325Y1207613D01*
X558002Y1207307D01*
X555198Y1206146D01*
X552791Y1204299D01*
X550944Y1201892D01*
X549782Y1199088D01*
X549386Y1196080D01*
X549782Y1193072D01*
X550944Y1190268D01*
X552791Y1187861D01*
X555198Y1186014D01*
X558002Y1184853D01*
X561010Y1184457D01*
X564018Y1184853D01*
X566822Y1186014D01*
X569229Y1187861D01*
X571076Y1190268D01*
X572237Y1193072D01*
X572633Y1196080D01*
X572237Y1199088D01*
X571076Y1201892D01*
X569229Y1204299D01*
X566822Y1206146D01*
X564018Y1207307D01*
X561695Y1207613D01*
X561590Y1207627D01*
Y1208908D01*
X561695Y1208922D01*
X564283Y1209263D01*
X567334Y1210526D01*
X569953Y1212536D01*
X571964Y1215156D01*
X573227Y1218206D01*
X573491Y1220210D01*
D02*
G37*
G36*
X815010Y1182303D02*
X812001Y1181907D01*
X809198Y1180746D01*
X806791Y1178899D01*
X804944Y1176492D01*
X803783Y1173688D01*
X803387Y1170680D01*
X803783Y1167672D01*
X804944Y1164868D01*
X806791Y1162461D01*
X809198Y1160614D01*
X812001Y1159453D01*
X815010Y1159057D01*
X818018Y1159453D01*
X820822Y1160614D01*
X823229Y1162461D01*
X825076Y1164868D01*
X826237Y1167672D01*
X826633Y1170680D01*
X826237Y1173688D01*
X825076Y1176492D01*
X823229Y1178899D01*
X820822Y1180746D01*
X818018Y1181907D01*
X815010Y1182303D01*
D02*
G37*
G36*
X561010D02*
X558002Y1181907D01*
X555198Y1180746D01*
X552791Y1178899D01*
X550944Y1176492D01*
X549782Y1173688D01*
X549386Y1170680D01*
X549782Y1167672D01*
X550944Y1164868D01*
X552791Y1162461D01*
X555198Y1160614D01*
X558002Y1159453D01*
X561010Y1159057D01*
X564018Y1159453D01*
X566822Y1160614D01*
X569229Y1162461D01*
X571076Y1164868D01*
X572237Y1167672D01*
X572633Y1170680D01*
X572237Y1173688D01*
X571076Y1176492D01*
X569229Y1178899D01*
X566822Y1180746D01*
X564018Y1181907D01*
X561010Y1182303D01*
D02*
G37*
G36*
X476470Y1145960D02*
X469700D01*
Y1139190D01*
X476470D01*
Y1145960D01*
D02*
G37*
G36*
X467160D02*
X460390D01*
Y1139190D01*
X467160D01*
Y1145960D01*
D02*
G37*
G36*
X534890Y1144690D02*
X528120D01*
Y1137920D01*
X534890D01*
Y1144690D01*
D02*
G37*
G36*
X525580D02*
X518810D01*
Y1137920D01*
X525580D01*
Y1144690D01*
D02*
G37*
G36*
X815010Y1156904D02*
X812001Y1156507D01*
X809198Y1155346D01*
X806791Y1153499D01*
X804944Y1151092D01*
X803783Y1148288D01*
X803387Y1145280D01*
X803783Y1142272D01*
X804944Y1139468D01*
X806791Y1137061D01*
X809198Y1135214D01*
X812001Y1134053D01*
X815010Y1133657D01*
X818018Y1134053D01*
X820822Y1135214D01*
X823229Y1137061D01*
X825076Y1139468D01*
X826237Y1142272D01*
X826633Y1145280D01*
X826237Y1148288D01*
X825076Y1151092D01*
X823229Y1153499D01*
X820822Y1155346D01*
X818018Y1156507D01*
X815010Y1156904D01*
D02*
G37*
G36*
X561010D02*
X558002Y1156507D01*
X555198Y1155346D01*
X552791Y1153499D01*
X550944Y1151092D01*
X549782Y1148288D01*
X549386Y1145280D01*
X549782Y1142272D01*
X550944Y1139468D01*
X552791Y1137061D01*
X555198Y1135214D01*
X558002Y1134053D01*
X561010Y1133657D01*
X564018Y1134053D01*
X566822Y1135214D01*
X569229Y1137061D01*
X571076Y1139468D01*
X572237Y1142272D01*
X572633Y1145280D01*
X572237Y1148288D01*
X571076Y1151092D01*
X569229Y1153499D01*
X566822Y1155346D01*
X564018Y1156507D01*
X561010Y1156904D01*
D02*
G37*
G36*
X443430Y1145005D02*
X441596Y1144763D01*
X439888Y1144055D01*
X438420Y1142930D01*
X437295Y1141462D01*
X436587Y1139754D01*
X436345Y1137920D01*
X436587Y1136086D01*
X437295Y1134378D01*
X438420Y1132910D01*
X439888Y1131785D01*
X441596Y1131077D01*
X443430Y1130835D01*
X445264Y1131077D01*
X446972Y1131785D01*
X448440Y1132910D01*
X449565Y1134378D01*
X450273Y1136086D01*
X450515Y1137920D01*
X450273Y1139754D01*
X449565Y1141462D01*
X448440Y1142930D01*
X446972Y1144055D01*
X445264Y1144763D01*
X443430Y1145005D01*
D02*
G37*
G36*
X476470Y1136650D02*
X469700D01*
Y1129880D01*
X476470D01*
Y1136650D01*
D02*
G37*
G36*
X467160D02*
X460390D01*
Y1129880D01*
X467160D01*
Y1136650D01*
D02*
G37*
G36*
X534890Y1135380D02*
X528120D01*
Y1128610D01*
X534890D01*
Y1135380D01*
D02*
G37*
G36*
X525580D02*
X518810D01*
Y1128610D01*
X525580D01*
Y1135380D01*
D02*
G37*
G36*
X815010Y1131504D02*
X812001Y1131107D01*
X809198Y1129946D01*
X806791Y1128099D01*
X804944Y1125692D01*
X803783Y1122888D01*
X803387Y1119880D01*
X803783Y1116872D01*
X804944Y1114068D01*
X806791Y1111661D01*
X809198Y1109814D01*
X812001Y1108653D01*
X815010Y1108257D01*
X818018Y1108653D01*
X820822Y1109814D01*
X823229Y1111661D01*
X825076Y1114068D01*
X826237Y1116872D01*
X826633Y1119880D01*
X826237Y1122888D01*
X825076Y1125692D01*
X823229Y1128099D01*
X820822Y1129946D01*
X818018Y1131107D01*
X815010Y1131504D01*
D02*
G37*
G36*
X561010D02*
X558002Y1131107D01*
X555198Y1129946D01*
X552791Y1128099D01*
X550944Y1125692D01*
X549782Y1122888D01*
X549386Y1119880D01*
X549782Y1116872D01*
X550944Y1114068D01*
X552791Y1111661D01*
X555198Y1109814D01*
X558002Y1108653D01*
X561010Y1108257D01*
X564018Y1108653D01*
X566822Y1109814D01*
X569229Y1111661D01*
X571076Y1114068D01*
X572237Y1116872D01*
X572633Y1119880D01*
X572237Y1122888D01*
X571076Y1125692D01*
X569229Y1128099D01*
X566822Y1129946D01*
X564018Y1131107D01*
X561010Y1131504D01*
D02*
G37*
G36*
X815010Y1106104D02*
X812001Y1105707D01*
X809198Y1104546D01*
X806791Y1102699D01*
X804944Y1100292D01*
X803783Y1097488D01*
X803387Y1094480D01*
X803783Y1091472D01*
X804944Y1088668D01*
X806791Y1086261D01*
X809198Y1084414D01*
X812001Y1083253D01*
X815010Y1082857D01*
X818018Y1083253D01*
X820822Y1084414D01*
X823229Y1086261D01*
X825076Y1088668D01*
X826237Y1091472D01*
X826633Y1094480D01*
X826237Y1097488D01*
X825076Y1100292D01*
X823229Y1102699D01*
X820822Y1104546D01*
X818018Y1105707D01*
X815010Y1106104D01*
D02*
G37*
G36*
X561010D02*
X558002Y1105707D01*
X555198Y1104546D01*
X552791Y1102699D01*
X550944Y1100292D01*
X549782Y1097488D01*
X549386Y1094480D01*
X549782Y1091472D01*
X550944Y1088668D01*
X552791Y1086261D01*
X555198Y1084414D01*
X558002Y1083253D01*
X561010Y1082857D01*
X564018Y1083253D01*
X566822Y1084414D01*
X569229Y1086261D01*
X571076Y1088668D01*
X572237Y1091472D01*
X572633Y1094480D01*
X572237Y1097488D01*
X571076Y1100292D01*
X569229Y1102699D01*
X566822Y1104546D01*
X564018Y1105707D01*
X561010Y1106104D01*
D02*
G37*
G36*
X501850Y1143735D02*
X500016Y1143493D01*
X498308Y1142785D01*
X496840Y1141660D01*
X495715Y1140192D01*
X495007Y1138484D01*
X494765Y1136650D01*
X495007Y1134816D01*
X495715Y1133108D01*
X496840Y1131640D01*
X498308Y1130515D01*
X499001Y1130227D01*
Y1125020D01*
X499001Y1125020D01*
X499218Y1123930D01*
X499836Y1123006D01*
X507256Y1115586D01*
X507256Y1115586D01*
X508180Y1114968D01*
X509270Y1114751D01*
X509270Y1114751D01*
X512453D01*
X512536Y1113481D01*
X510435Y1113205D01*
X508361Y1112346D01*
X506581Y1110979D01*
X505214Y1109199D01*
X504355Y1107125D01*
X504062Y1104900D01*
X504355Y1102675D01*
X505214Y1100601D01*
X506581Y1098821D01*
X508361Y1097454D01*
X510435Y1096595D01*
X512660Y1096302D01*
X523660D01*
X525885Y1096595D01*
X527959Y1097454D01*
X529739Y1098821D01*
X531106Y1100601D01*
X531965Y1102675D01*
X532258Y1104900D01*
X531965Y1107125D01*
X531106Y1109199D01*
X529739Y1110979D01*
X527959Y1112346D01*
X525885Y1113205D01*
X523784Y1113481D01*
X523867Y1114751D01*
X530950D01*
X538171Y1107530D01*
Y1087030D01*
X533490Y1082349D01*
X531706D01*
X531106Y1083799D01*
X529739Y1085579D01*
X527959Y1086946D01*
X525885Y1087805D01*
X523660Y1088098D01*
X512660D01*
X510435Y1087805D01*
X508361Y1086946D01*
X506581Y1085579D01*
X505214Y1083799D01*
X504355Y1081725D01*
X504062Y1079500D01*
X504355Y1077275D01*
X505214Y1075201D01*
X506581Y1073421D01*
X508361Y1072054D01*
X510435Y1071195D01*
X512660Y1070902D01*
X523660D01*
X525885Y1071195D01*
X527959Y1072054D01*
X529739Y1073421D01*
X531106Y1075201D01*
X531706Y1076651D01*
X534670D01*
X534670Y1076651D01*
X535760Y1076868D01*
X536684Y1077486D01*
X543034Y1083836D01*
X543034Y1083836D01*
X543652Y1084760D01*
X543869Y1085850D01*
Y1108710D01*
X543869Y1108710D01*
X543652Y1109800D01*
X543034Y1110724D01*
X543034Y1110724D01*
X534144Y1119614D01*
X533220Y1120232D01*
X532130Y1120449D01*
X532130Y1120449D01*
X510450D01*
X504699Y1126200D01*
Y1130227D01*
X505392Y1130515D01*
X506860Y1131640D01*
X507985Y1133108D01*
X508693Y1134816D01*
X508935Y1136650D01*
X508693Y1138484D01*
X507985Y1140192D01*
X506860Y1141660D01*
X505392Y1142785D01*
X503684Y1143493D01*
X501850Y1143735D01*
D02*
G37*
G36*
X815010Y1080704D02*
X812001Y1080307D01*
X809198Y1079146D01*
X806791Y1077299D01*
X804944Y1074892D01*
X803783Y1072088D01*
X803387Y1069080D01*
X803783Y1066072D01*
X804944Y1063268D01*
X806791Y1060861D01*
X809198Y1059014D01*
X812001Y1057853D01*
X815010Y1057457D01*
X818018Y1057853D01*
X820822Y1059014D01*
X823229Y1060861D01*
X825076Y1063268D01*
X826237Y1066072D01*
X826633Y1069080D01*
X826237Y1072088D01*
X825076Y1074892D01*
X823229Y1077299D01*
X820822Y1079146D01*
X818018Y1080307D01*
X815010Y1080704D01*
D02*
G37*
G36*
X561010D02*
X558002Y1080307D01*
X555198Y1079146D01*
X552791Y1077299D01*
X550944Y1074892D01*
X549782Y1072088D01*
X549386Y1069080D01*
X549782Y1066072D01*
X550944Y1063268D01*
X552791Y1060861D01*
X555198Y1059014D01*
X558002Y1057853D01*
X561010Y1057457D01*
X564018Y1057853D01*
X566822Y1059014D01*
X569229Y1060861D01*
X571076Y1063268D01*
X572237Y1066072D01*
X572633Y1069080D01*
X572237Y1072088D01*
X571076Y1074892D01*
X569229Y1077299D01*
X566822Y1079146D01*
X564018Y1080307D01*
X561010Y1080704D01*
D02*
G37*
G36*
X523660Y1062698D02*
X512660D01*
X510435Y1062405D01*
X508361Y1061546D01*
X506581Y1060179D01*
X505214Y1058399D01*
X504355Y1056325D01*
X504062Y1054100D01*
X504355Y1051875D01*
X505214Y1049801D01*
X506581Y1048021D01*
X508361Y1046654D01*
X510435Y1045795D01*
X512660Y1045502D01*
X523660D01*
X525885Y1045795D01*
X527959Y1046654D01*
X529739Y1048021D01*
X531106Y1049801D01*
X531965Y1051875D01*
X532258Y1054100D01*
X531965Y1056325D01*
X531106Y1058399D01*
X529739Y1060179D01*
X527959Y1061546D01*
X525885Y1062405D01*
X523660Y1062698D01*
D02*
G37*
G36*
X815010Y1055303D02*
X812001Y1054907D01*
X809198Y1053746D01*
X806791Y1051899D01*
X804944Y1049492D01*
X803783Y1046688D01*
X803387Y1043680D01*
X803783Y1040672D01*
X804944Y1037868D01*
X806791Y1035461D01*
X809198Y1033614D01*
X812001Y1032453D01*
X815010Y1032057D01*
X818018Y1032453D01*
X820822Y1033614D01*
X823229Y1035461D01*
X825076Y1037868D01*
X826237Y1040672D01*
X826633Y1043680D01*
X826237Y1046688D01*
X825076Y1049492D01*
X823229Y1051899D01*
X820822Y1053746D01*
X818018Y1054907D01*
X815010Y1055303D01*
D02*
G37*
G36*
X561010D02*
X558002Y1054907D01*
X555198Y1053746D01*
X552791Y1051899D01*
X550944Y1049492D01*
X549782Y1046688D01*
X549386Y1043680D01*
X549782Y1040672D01*
X550944Y1037868D01*
X552791Y1035461D01*
X555198Y1033614D01*
X558002Y1032453D01*
X561010Y1032057D01*
X564018Y1032453D01*
X566822Y1033614D01*
X569229Y1035461D01*
X571076Y1037868D01*
X572237Y1040672D01*
X572633Y1043680D01*
X572237Y1046688D01*
X571076Y1049492D01*
X569229Y1051899D01*
X566822Y1053746D01*
X564018Y1054907D01*
X561010Y1055303D01*
D02*
G37*
G36*
X523660Y1037298D02*
X512660D01*
X510435Y1037005D01*
X508361Y1036146D01*
X506581Y1034779D01*
X505214Y1032999D01*
X504355Y1030925D01*
X504062Y1028700D01*
X504355Y1026475D01*
X505214Y1024401D01*
X506581Y1022621D01*
X508361Y1021254D01*
X510435Y1020395D01*
X512660Y1020102D01*
X523660D01*
X525885Y1020395D01*
X527959Y1021254D01*
X529739Y1022621D01*
X531106Y1024401D01*
X531965Y1026475D01*
X532258Y1028700D01*
X531965Y1030925D01*
X531106Y1032999D01*
X529739Y1034779D01*
X527959Y1036146D01*
X525885Y1037005D01*
X523660Y1037298D01*
D02*
G37*
G36*
X815010Y1029903D02*
X812001Y1029507D01*
X809198Y1028346D01*
X806791Y1026499D01*
X804944Y1024092D01*
X803783Y1021288D01*
X803387Y1018280D01*
X803783Y1015272D01*
X804944Y1012468D01*
X806791Y1010061D01*
X809198Y1008214D01*
X812001Y1007053D01*
X815010Y1006657D01*
X818018Y1007053D01*
X820822Y1008214D01*
X823229Y1010061D01*
X825076Y1012468D01*
X826237Y1015272D01*
X826633Y1018280D01*
X826237Y1021288D01*
X825076Y1024092D01*
X823229Y1026499D01*
X820822Y1028346D01*
X818018Y1029507D01*
X815010Y1029903D01*
D02*
G37*
G36*
X561010D02*
X558002Y1029507D01*
X555198Y1028346D01*
X552791Y1026499D01*
X550944Y1024092D01*
X549782Y1021288D01*
X549386Y1018280D01*
X549782Y1015272D01*
X550944Y1012468D01*
X552791Y1010061D01*
X555198Y1008214D01*
X558002Y1007053D01*
X561010Y1006657D01*
X564018Y1007053D01*
X566822Y1008214D01*
X569229Y1010061D01*
X571076Y1012468D01*
X572237Y1015272D01*
X572633Y1018280D01*
X572237Y1021288D01*
X571076Y1024092D01*
X569229Y1026499D01*
X566822Y1028346D01*
X564018Y1029507D01*
X561010Y1029903D01*
D02*
G37*
G36*
X532184Y1011824D02*
X504136D01*
Y994776D01*
X532184D01*
Y1011824D01*
D02*
G37*
G36*
X509270Y985829D02*
X509270Y985829D01*
X471170D01*
X471170Y985829D01*
X470080Y985612D01*
X469156Y984994D01*
X469156Y984994D01*
X460266Y976104D01*
X459648Y975180D01*
X459431Y974090D01*
X459431Y974090D01*
Y967467D01*
X459018Y967192D01*
X458742Y966779D01*
X444500D01*
X444500Y966779D01*
X443410Y966562D01*
X442486Y965944D01*
X442486Y965944D01*
X435906Y959364D01*
X435288Y958440D01*
X435071Y957350D01*
X435071Y957350D01*
Y888057D01*
X434433Y887973D01*
X432153Y887028D01*
X430194Y885526D01*
X428692Y883567D01*
X427747Y881287D01*
X427425Y878840D01*
X427747Y876393D01*
X428692Y874113D01*
X430194Y872154D01*
X432153Y870652D01*
X434433Y869707D01*
X436880Y869385D01*
X439327Y869707D01*
X441607Y870652D01*
X443566Y872154D01*
X445068Y874113D01*
X446013Y876393D01*
X446335Y878840D01*
X446013Y881287D01*
X445068Y883567D01*
X443566Y885526D01*
X441607Y887028D01*
X440769Y887376D01*
Y956170D01*
X445680Y961081D01*
X458742D01*
X459018Y960668D01*
X460515Y959669D01*
X462280Y959317D01*
X464045Y959669D01*
X465542Y960668D01*
X466541Y962165D01*
X466893Y963930D01*
X466541Y965695D01*
X465542Y967192D01*
X465129Y967467D01*
Y972910D01*
X472350Y980131D01*
X508090D01*
X513644Y974577D01*
X513547Y974090D01*
X513899Y972325D01*
X514898Y970828D01*
X516395Y969828D01*
X518160Y969477D01*
X519925Y969828D01*
X521422Y970828D01*
X522421Y972325D01*
X522773Y974090D01*
X522421Y975855D01*
X521422Y977352D01*
X519925Y978352D01*
X518160Y978703D01*
X517673Y978606D01*
X511284Y984994D01*
X510360Y985612D01*
X509270Y985829D01*
D02*
G37*
G36*
X815010Y1004503D02*
X812001Y1004107D01*
X809198Y1002946D01*
X806791Y1001099D01*
X804944Y998692D01*
X803783Y995888D01*
X803387Y992880D01*
X803783Y989872D01*
X804944Y987068D01*
X806791Y984661D01*
X809198Y982814D01*
X812001Y981653D01*
X815010Y981257D01*
X818018Y981653D01*
X820822Y982814D01*
X823229Y984661D01*
X825076Y987068D01*
X826237Y989872D01*
X826633Y992880D01*
X826237Y995888D01*
X825076Y998692D01*
X823229Y1001099D01*
X820822Y1002946D01*
X818018Y1004107D01*
X815010Y1004503D01*
D02*
G37*
G36*
X561010D02*
X558002Y1004107D01*
X555198Y1002946D01*
X552791Y1001099D01*
X550944Y998692D01*
X549782Y995888D01*
X549386Y992880D01*
X549782Y989872D01*
X550944Y987068D01*
X552791Y984661D01*
X555198Y982814D01*
X558002Y981653D01*
X561010Y981257D01*
X564018Y981653D01*
X566822Y982814D01*
X569229Y984661D01*
X571076Y987068D01*
X572237Y989872D01*
X572633Y992880D01*
X572237Y995888D01*
X571076Y998692D01*
X569229Y1001099D01*
X566822Y1002946D01*
X564018Y1004107D01*
X561010Y1004503D01*
D02*
G37*
G36*
X486410Y978465D02*
X483963Y978143D01*
X481683Y977198D01*
X479724Y975696D01*
X478222Y973737D01*
X477277Y971457D01*
X476955Y969010D01*
X477277Y966563D01*
X478222Y964283D01*
X479724Y962324D01*
X481683Y960822D01*
X483963Y959877D01*
X486410Y959555D01*
X488857Y959877D01*
X491137Y960822D01*
X493096Y962324D01*
X494598Y964283D01*
X495543Y966563D01*
X495865Y969010D01*
X495543Y971457D01*
X494598Y973737D01*
X493096Y975696D01*
X491137Y977198D01*
X488857Y978143D01*
X486410Y978465D01*
D02*
G37*
G36*
X815010Y979103D02*
X812001Y978707D01*
X809198Y977546D01*
X806791Y975699D01*
X804944Y973292D01*
X803783Y970488D01*
X803387Y967480D01*
X803783Y964472D01*
X804944Y961668D01*
X806791Y959261D01*
X809198Y957414D01*
X812001Y956253D01*
X815010Y955857D01*
X818018Y956253D01*
X820822Y957414D01*
X823229Y959261D01*
X825076Y961668D01*
X826237Y964472D01*
X826633Y967480D01*
X826237Y970488D01*
X825076Y973292D01*
X823229Y975699D01*
X820822Y977546D01*
X818018Y978707D01*
X815010Y979103D01*
D02*
G37*
G36*
X561010D02*
X558002Y978707D01*
X555198Y977546D01*
X552791Y975699D01*
X550944Y973292D01*
X549782Y970488D01*
X549386Y967480D01*
X549782Y964472D01*
X550944Y961668D01*
X552791Y959261D01*
X555198Y957414D01*
X558002Y956253D01*
X561010Y955857D01*
X564018Y956253D01*
X566822Y957414D01*
X569229Y959261D01*
X571076Y961668D01*
X572237Y964472D01*
X572633Y967480D01*
X572237Y970488D01*
X571076Y973292D01*
X569229Y975699D01*
X566822Y977546D01*
X564018Y978707D01*
X561010Y979103D01*
D02*
G37*
G36*
X815010Y953704D02*
X812001Y953307D01*
X809198Y952146D01*
X806791Y950299D01*
X804944Y947892D01*
X803783Y945088D01*
X803387Y942080D01*
X803783Y939072D01*
X804944Y936268D01*
X806791Y933861D01*
X809198Y932014D01*
X812001Y930853D01*
X815010Y930457D01*
X818018Y930853D01*
X820822Y932014D01*
X823229Y933861D01*
X825076Y936268D01*
X826237Y939072D01*
X826633Y942080D01*
X826237Y945088D01*
X825076Y947892D01*
X823229Y950299D01*
X820822Y952146D01*
X818018Y953307D01*
X815010Y953704D01*
D02*
G37*
G36*
X561010D02*
X558002Y953307D01*
X555198Y952146D01*
X552791Y950299D01*
X550944Y947892D01*
X549782Y945088D01*
X549386Y942080D01*
X549782Y939072D01*
X550944Y936268D01*
X552791Y933861D01*
X555198Y932014D01*
X558002Y930853D01*
X561010Y930457D01*
X564018Y930853D01*
X566822Y932014D01*
X569229Y933861D01*
X571076Y936268D01*
X572237Y939072D01*
X572633Y942080D01*
X572237Y945088D01*
X571076Y947892D01*
X569229Y950299D01*
X566822Y952146D01*
X564018Y953307D01*
X561010Y953704D01*
D02*
G37*
G36*
X720090Y1040933D02*
X718325Y1040582D01*
X716828Y1039582D01*
X715828Y1038085D01*
X715477Y1036320D01*
X715828Y1034555D01*
X716828Y1033058D01*
X717241Y1032783D01*
Y1011600D01*
X717241Y1011600D01*
X717458Y1010510D01*
X718076Y1009585D01*
X805042Y922619D01*
X804944Y922492D01*
X803783Y919688D01*
X803387Y916680D01*
X803783Y913672D01*
X804944Y910868D01*
X806791Y908461D01*
X809198Y906614D01*
X812001Y905453D01*
X815010Y905057D01*
X818018Y905453D01*
X820822Y906614D01*
X823229Y908461D01*
X825076Y910868D01*
X826237Y913672D01*
X826633Y916680D01*
X826237Y919688D01*
X825076Y922492D01*
X823229Y924899D01*
X820822Y926746D01*
X818018Y927907D01*
X815010Y928304D01*
X812001Y927907D01*
X809198Y926746D01*
X809070Y926648D01*
X722939Y1012780D01*
Y1032783D01*
X723352Y1033058D01*
X724352Y1034555D01*
X724703Y1036320D01*
X724352Y1038085D01*
X723352Y1039582D01*
X721855Y1040582D01*
X720090Y1040933D01*
D02*
G37*
G36*
X561010Y928304D02*
X558002Y927907D01*
X555198Y926746D01*
X552791Y924899D01*
X550944Y922492D01*
X549782Y919688D01*
X549386Y916680D01*
X549782Y913672D01*
X550944Y910868D01*
X552791Y908461D01*
X555198Y906614D01*
X558002Y905453D01*
X561010Y905057D01*
X564018Y905453D01*
X566822Y906614D01*
X569229Y908461D01*
X571076Y910868D01*
X572237Y913672D01*
X572633Y916680D01*
X572237Y919688D01*
X571076Y922492D01*
X569229Y924899D01*
X566822Y926746D01*
X564018Y927907D01*
X561010Y928304D01*
D02*
G37*
G36*
X474980Y902016D02*
Y897890D01*
X479106D01*
X478929Y898782D01*
X477704Y900614D01*
X475872Y901839D01*
X474980Y902016D01*
D02*
G37*
G36*
X472440D02*
X471548Y901839D01*
X469716Y900614D01*
X468491Y898782D01*
X468314Y897890D01*
X472440D01*
Y902016D01*
D02*
G37*
G36*
X479106Y895350D02*
X474980D01*
Y891224D01*
X475872Y891401D01*
X477704Y892626D01*
X478929Y894458D01*
X479106Y895350D01*
D02*
G37*
G36*
X472440D02*
X468314D01*
X468491Y894458D01*
X469716Y892626D01*
X471548Y891401D01*
X472440Y891224D01*
Y895350D01*
D02*
G37*
G36*
X815010Y902904D02*
X812001Y902507D01*
X809198Y901346D01*
X806791Y899499D01*
X804944Y897092D01*
X803783Y894288D01*
X803387Y891280D01*
X803783Y888272D01*
X804944Y885468D01*
X806791Y883061D01*
X809198Y881214D01*
X812001Y880053D01*
X815010Y879657D01*
X818018Y880053D01*
X820822Y881214D01*
X823229Y883061D01*
X825076Y885468D01*
X826237Y888272D01*
X826633Y891280D01*
X826237Y894288D01*
X825076Y897092D01*
X823229Y899499D01*
X820822Y901346D01*
X818018Y902507D01*
X815010Y902904D01*
D02*
G37*
G36*
X561010D02*
X558002Y902507D01*
X555198Y901346D01*
X552791Y899499D01*
X550944Y897092D01*
X549782Y894288D01*
X549386Y891280D01*
X549782Y888272D01*
X550944Y885468D01*
X552791Y883061D01*
X555198Y881214D01*
X558002Y880053D01*
X561010Y879657D01*
X564018Y880053D01*
X566822Y881214D01*
X569229Y883061D01*
X571076Y885468D01*
X572237Y888272D01*
X572633Y891280D01*
X572237Y894288D01*
X571076Y897092D01*
X569229Y899499D01*
X566822Y901346D01*
X564018Y902507D01*
X561010Y902904D01*
D02*
G37*
G36*
X541020Y907583D02*
X539255Y907232D01*
X537758Y906232D01*
X536758Y904735D01*
X536407Y902970D01*
X536758Y901205D01*
X537758Y899708D01*
X538171Y899433D01*
Y888219D01*
X537985Y888182D01*
X536488Y887182D01*
X535489Y885685D01*
X535137Y883920D01*
X535489Y882155D01*
X536488Y880658D01*
X537985Y879659D01*
X539750Y879307D01*
X541515Y879659D01*
X543012Y880658D01*
X544011Y882155D01*
X544363Y883920D01*
X544011Y885685D01*
X543869Y885899D01*
Y899433D01*
X544282Y899708D01*
X545281Y901205D01*
X545633Y902970D01*
X545281Y904735D01*
X544282Y906232D01*
X542785Y907232D01*
X541020Y907583D01*
D02*
G37*
G36*
X526930Y863480D02*
X518160D01*
Y854710D01*
X526930D01*
Y863480D01*
D02*
G37*
G36*
X515620D02*
X506850D01*
Y854710D01*
X515620D01*
Y863480D01*
D02*
G37*
G36*
X527050Y931713D02*
X525285Y931361D01*
X523788Y930362D01*
X522789Y928865D01*
X522437Y927100D01*
X522789Y925335D01*
X523788Y923838D01*
X525285Y922839D01*
X527050Y922487D01*
X528011Y921490D01*
Y904150D01*
X489476Y865614D01*
X488858Y864690D01*
X488641Y863600D01*
X488641Y863600D01*
Y862028D01*
X486939Y861322D01*
X485054Y859876D01*
X483608Y857991D01*
X482698Y855796D01*
X482388Y853440D01*
X482698Y851084D01*
X483608Y848889D01*
X485054Y847004D01*
X486939Y845558D01*
X489134Y844648D01*
X491490Y844338D01*
X493846Y844648D01*
X496041Y845558D01*
X497926Y847004D01*
X499372Y848889D01*
X500282Y851084D01*
X500592Y853440D01*
X500282Y855796D01*
X499372Y857991D01*
X497926Y859876D01*
X496041Y861322D01*
X495331Y861616D01*
X495033Y863114D01*
X532874Y900956D01*
X533492Y901880D01*
X533709Y902970D01*
X533709Y902970D01*
Y923290D01*
X533709Y923290D01*
X533492Y924380D01*
X532874Y925304D01*
X531566Y926613D01*
X531663Y927100D01*
X531311Y928865D01*
X530312Y930362D01*
X528815Y931361D01*
X527050Y931713D01*
D02*
G37*
G36*
X810310Y870060D02*
X806925Y869614D01*
X803770Y868307D01*
X801061Y866229D01*
X798982Y863520D01*
X797676Y860365D01*
X797230Y856980D01*
X797676Y853595D01*
X798982Y850440D01*
X801061Y847731D01*
X803770Y845652D01*
X806925Y844346D01*
X810310Y843900D01*
X813695Y844346D01*
X816850Y845652D01*
X819559Y847731D01*
X821637Y850440D01*
X822944Y853595D01*
X823390Y856980D01*
X822944Y860365D01*
X821637Y863520D01*
X819559Y866229D01*
X816850Y868307D01*
X813695Y869614D01*
X810310Y870060D01*
D02*
G37*
G36*
X565210D02*
X561825Y869614D01*
X558670Y868307D01*
X555961Y866229D01*
X553882Y863520D01*
X552576Y860365D01*
X552130Y856980D01*
X552576Y853595D01*
X553882Y850440D01*
X555961Y847731D01*
X558670Y845652D01*
X561825Y844346D01*
X565210Y843900D01*
X568595Y844346D01*
X571750Y845652D01*
X574459Y847731D01*
X576537Y850440D01*
X577844Y853595D01*
X578290Y856980D01*
X577844Y860365D01*
X576537Y863520D01*
X574459Y866229D01*
X571750Y868307D01*
X568595Y869614D01*
X565210Y870060D01*
D02*
G37*
G36*
X526930Y852170D02*
X518160D01*
Y843400D01*
X526930D01*
Y852170D01*
D02*
G37*
G36*
X515620D02*
X506850D01*
Y843400D01*
X515620D01*
Y852170D01*
D02*
G37*
G36*
X438150Y856545D02*
X435703Y856223D01*
X433423Y855278D01*
X431464Y853776D01*
X429962Y851817D01*
X429017Y849537D01*
X428695Y847090D01*
X429017Y844643D01*
X429962Y842363D01*
X431464Y840404D01*
X433423Y838902D01*
X435703Y837957D01*
X438150Y837635D01*
X440597Y837957D01*
X442877Y838902D01*
X444836Y840404D01*
X446338Y842363D01*
X447283Y844643D01*
X447605Y847090D01*
X447283Y849537D01*
X446338Y851817D01*
X444836Y853776D01*
X442877Y855278D01*
X440597Y856223D01*
X438150Y856545D01*
D02*
G37*
G36*
X775810Y903530D02*
X598910D01*
X597743Y903046D01*
X597260Y901880D01*
Y836980D01*
X597743Y835814D01*
X598910Y835330D01*
X775810D01*
X776976Y835814D01*
X777459Y836980D01*
Y901880D01*
X776976Y903046D01*
X775810Y903530D01*
D02*
G37*
%LPD*%
D14*
X530860Y902970D02*
Y923290D01*
X491490Y863600D02*
X530860Y902970D01*
X491490Y854710D02*
Y863600D01*
X720090Y1011600D02*
X815010Y916680D01*
X720090Y1011600D02*
Y1036320D01*
X488950Y1206500D02*
X500380Y1217930D01*
X488950Y1076960D02*
Y1206500D01*
X466090Y1054100D02*
X488950Y1076960D01*
X500380Y1217930D02*
X519430D01*
X438150Y1250950D02*
X439074D01*
X446694Y1258570D01*
X533400D01*
X534504Y1259674D02*
X802216D01*
X815010Y1246880D01*
X533400Y1258570D02*
X534504Y1259674D01*
X559480Y1248410D02*
X561010Y1246880D01*
X494030Y1248410D02*
X559480D01*
X441960Y1054100D02*
X466090D01*
X501850Y1125020D02*
Y1136650D01*
Y1125020D02*
X509270Y1117600D01*
X532130D01*
X541020Y1108710D01*
X534670Y1079500D02*
X541020Y1085850D01*
Y1108710D01*
X518160Y1079500D02*
X534670D01*
X445770Y1176020D02*
X472440D01*
X425450Y1155700D02*
X445770Y1176020D01*
X425450Y1019810D02*
Y1155700D01*
X441960Y1003300D02*
X485140D01*
X439561D02*
X441960D01*
X434267Y1008594D02*
X439561Y1003300D01*
X434267Y1008594D02*
Y1010993D01*
X425450Y1019810D02*
X434267Y1010993D01*
X436880Y878840D02*
X437920Y879880D01*
Y957350D01*
X527050Y927100D02*
X530860Y923290D01*
X446721Y1023939D02*
X449261D01*
X471170Y982980D02*
X509270D01*
X462280Y974090D02*
X471170Y982980D01*
X462280Y963930D02*
Y974090D01*
X509270Y982980D02*
X518160Y974090D01*
X444500Y963930D02*
X462280D01*
X437920Y957350D02*
X444500Y963930D01*
X541020Y885190D02*
Y902970D01*
X539750Y883920D02*
X541020Y885190D01*
X468430Y1137920D02*
X468630Y1138120D01*
X419100Y829310D02*
Y1275080D01*
X838200D01*
X838200Y829310D01*
X419100D02*
X838200D01*
D27*
X443430Y1137920D02*
D03*
X501850Y1136650D02*
D03*
D28*
X468430Y1137920D02*
D03*
X526850Y1136650D02*
D03*
D29*
X436880Y878840D02*
D03*
X438150Y847090D02*
D03*
X469900Y1220470D02*
D03*
X486410Y969010D02*
D03*
X472440Y1176020D02*
D03*
X519430Y1217930D02*
D03*
D38*
X516890Y853440D02*
D03*
D39*
X491490D02*
D03*
D40*
X561010Y1246880D02*
D03*
D41*
Y1221480D02*
D03*
Y1196080D02*
D03*
Y1170680D02*
D03*
Y1145280D02*
D03*
Y1119880D02*
D03*
Y1094480D02*
D03*
Y1069080D02*
D03*
Y1043680D02*
D03*
Y1018280D02*
D03*
Y992880D02*
D03*
Y967480D02*
D03*
Y942080D02*
D03*
Y916680D02*
D03*
Y891280D02*
D03*
X815010Y1246880D02*
D03*
Y1221480D02*
D03*
Y1196080D02*
D03*
Y1170680D02*
D03*
Y1145280D02*
D03*
Y1119880D02*
D03*
Y1094480D02*
D03*
Y1069080D02*
D03*
Y1043680D02*
D03*
Y1018280D02*
D03*
Y992880D02*
D03*
Y967480D02*
D03*
Y942080D02*
D03*
Y916680D02*
D03*
Y891280D02*
D03*
D42*
X565210Y856980D02*
D03*
X810310D02*
D03*
Y1326480D02*
D03*
X565210D02*
D03*
D43*
X441960Y1104900D02*
D03*
Y1079500D02*
D03*
Y1054100D02*
D03*
Y1028700D02*
D03*
Y1003300D02*
D03*
X518160Y1104900D02*
D03*
Y1079500D02*
D03*
Y1054100D02*
D03*
Y1028700D02*
D03*
D44*
Y1003300D02*
D03*
D45*
X440690Y1197610D02*
D03*
X438150Y1250950D02*
D03*
X439420Y1226820D02*
D03*
D46*
X720090Y1036320D02*
D03*
X533400Y1258570D02*
D03*
X494030Y1248410D02*
D03*
X485140Y1003300D02*
D03*
X527050Y927100D02*
D03*
X462280Y963930D02*
D03*
X518160Y974090D02*
D03*
X473710Y896620D02*
D03*
X541020Y902970D02*
D03*
X539750Y883920D02*
D03*
M02*
