G04*
G04 #@! TF.GenerationSoftware,Altium Limited,Altium Designer,20.0.2 (26)*
G04*
G04 Layer_Color=8421504*
%FSLAX44Y44*%
%MOMM*%
G71*
G01*
G75*
%ADD14C,0.2540*%
%ADD15R,0.6000X0.8000*%
%ADD16R,0.4246X0.2921*%
%ADD17R,0.4500X0.2921*%
%ADD18R,0.6725X0.6899*%
%ADD19R,0.4899X0.4725*%
%ADD20C,0.1524*%
D14*
X419100Y829310D02*
Y1275080D01*
X838200D01*
X838200Y829310D01*
X419100D02*
X838200D01*
D15*
X460640Y911860D02*
D03*
X446140D02*
D03*
D16*
X490220Y878900D02*
D03*
Y886400D02*
D03*
D17*
X474980Y885130D02*
D03*
Y877630D02*
D03*
X504190Y878900D02*
D03*
Y886400D02*
D03*
X519430Y895470D02*
D03*
Y902970D02*
D03*
D18*
X502920Y1169964D02*
D03*
Y1179536D02*
D03*
X518160Y943904D02*
D03*
Y953476D02*
D03*
X524510Y1169964D02*
D03*
Y1179536D02*
D03*
D19*
X455979Y934720D02*
D03*
X463550D02*
D03*
X455954Y952500D02*
D03*
X463526D02*
D03*
D20*
X486220Y916560D02*
D03*
Y920560D02*
D03*
Y924560D02*
D03*
Y928560D02*
D03*
X490220Y916560D02*
D03*
Y920560D02*
D03*
Y924560D02*
D03*
Y928560D02*
D03*
X494220Y916560D02*
D03*
Y920560D02*
D03*
Y924560D02*
D03*
Y928560D02*
D03*
M02*
