G04*
G04 #@! TF.GenerationSoftware,Altium Limited,Altium Designer,20.0.2 (26)*
G04*
G04 Layer_Color=8388736*
%FSLAX44Y44*%
%MOMM*%
G71*
G01*
G75*
%ADD14C,0.2540*%
%ADD18R,0.6725X0.6899*%
%ADD19R,0.4899X0.4725*%
%ADD21R,0.8032X1.0032*%
%ADD22R,0.6278X0.4953*%
%ADD23R,0.6532X0.4953*%
%ADD24C,0.3556*%
%ADD25R,1.7032X1.7032*%
%ADD26C,1.7032*%
%ADD27C,1.1000*%
%ADD28R,1.1000X1.1000*%
%ADD29C,1.5700*%
%ADD30R,2.2032X2.2032*%
%ADD31C,2.2032*%
%ADD32C,2.4920*%
%ADD33O,2.7032X1.6032*%
%ADD34R,2.7032X1.6032*%
%ADD35C,1.7272*%
%ADD36C,0.8032*%
D14*
X419100Y829310D02*
Y1275080D01*
X838200D01*
X838200Y829310D01*
X419100D02*
X838200D01*
D18*
X502920Y1169964D02*
D03*
Y1179536D02*
D03*
X518160Y943904D02*
D03*
Y953476D02*
D03*
X524510Y1169964D02*
D03*
Y1179536D02*
D03*
D19*
X455979Y934720D02*
D03*
X463550D02*
D03*
X455954Y952500D02*
D03*
X463526D02*
D03*
D21*
X460640Y911860D02*
D03*
X446140D02*
D03*
D22*
X490220Y878900D02*
D03*
Y886400D02*
D03*
D23*
X474980Y885130D02*
D03*
Y877630D02*
D03*
X504190Y878900D02*
D03*
Y886400D02*
D03*
X519430Y895470D02*
D03*
Y902970D02*
D03*
D24*
X486220Y916560D02*
D03*
Y920560D02*
D03*
Y924560D02*
D03*
Y928560D02*
D03*
X490220Y916560D02*
D03*
Y920560D02*
D03*
Y924560D02*
D03*
Y928560D02*
D03*
X494220Y916560D02*
D03*
Y920560D02*
D03*
Y924560D02*
D03*
Y928560D02*
D03*
D25*
X516890Y853440D02*
D03*
D26*
X491490D02*
D03*
D27*
X443430Y1137920D02*
D03*
X501850Y1136650D02*
D03*
D28*
X468430Y1137920D02*
D03*
X526850Y1136650D02*
D03*
D29*
X436880Y878840D02*
D03*
X438150Y847090D02*
D03*
X469900Y1220470D02*
D03*
X486410Y969010D02*
D03*
X472440Y1176020D02*
D03*
X519430Y1217930D02*
D03*
D30*
X561010Y1246880D02*
D03*
D31*
Y1221480D02*
D03*
Y1196080D02*
D03*
Y1170680D02*
D03*
Y1145280D02*
D03*
Y1119880D02*
D03*
Y1094480D02*
D03*
Y1069080D02*
D03*
Y1043680D02*
D03*
Y1018280D02*
D03*
Y992880D02*
D03*
Y967480D02*
D03*
Y942080D02*
D03*
Y916680D02*
D03*
Y891280D02*
D03*
X815010Y1246880D02*
D03*
Y1221480D02*
D03*
Y1196080D02*
D03*
Y1170680D02*
D03*
Y1145280D02*
D03*
Y1119880D02*
D03*
Y1094480D02*
D03*
Y1069080D02*
D03*
Y1043680D02*
D03*
Y1018280D02*
D03*
Y992880D02*
D03*
Y967480D02*
D03*
Y942080D02*
D03*
Y916680D02*
D03*
Y891280D02*
D03*
D32*
X565210Y856980D02*
D03*
X810310D02*
D03*
Y1326480D02*
D03*
X565210D02*
D03*
D33*
X441960Y1104900D02*
D03*
Y1079500D02*
D03*
Y1054100D02*
D03*
Y1028700D02*
D03*
Y1003300D02*
D03*
X518160Y1104900D02*
D03*
Y1079500D02*
D03*
Y1054100D02*
D03*
Y1028700D02*
D03*
D34*
Y1003300D02*
D03*
D35*
X440690Y1197610D02*
D03*
X438150Y1250950D02*
D03*
X439420Y1226820D02*
D03*
D36*
X720090Y1036320D02*
D03*
X533400Y1258570D02*
D03*
X494030Y1248410D02*
D03*
X485140Y1003300D02*
D03*
X527050Y927100D02*
D03*
X462280Y963930D02*
D03*
X518160Y974090D02*
D03*
X473710Y896620D02*
D03*
X541020Y902970D02*
D03*
X539750Y883920D02*
D03*
M02*
