G04*
G04 #@! TF.GenerationSoftware,Altium Limited,Altium Designer,20.0.2 (26)*
G04*
G04 Layer_Color=32896*
%FSLAX44Y44*%
%MOMM*%
G71*
G01*
G75*
%ADD14C,0.2540*%
G36*
X672973Y1132472D02*
X673211Y1132457D01*
X673657Y1132368D01*
X673850Y1132324D01*
X674043Y1132264D01*
X674206Y1132190D01*
X674355Y1132130D01*
X674489Y1132056D01*
X674608Y1131997D01*
X674712Y1131922D01*
X674801Y1131878D01*
X674860Y1131833D01*
X674905Y1131789D01*
X674934Y1131774D01*
X674949Y1131759D01*
X675098Y1131610D01*
X675217Y1131462D01*
X675440Y1131120D01*
X675603Y1130778D01*
X675722Y1130436D01*
X675811Y1130139D01*
X675826Y1130005D01*
X675856Y1129887D01*
X675871Y1129798D01*
X675885Y1129723D01*
Y1129679D01*
Y1129664D01*
X674652Y1129530D01*
X674622Y1129857D01*
X674563Y1130139D01*
X674489Y1130377D01*
X674385Y1130585D01*
X674296Y1130748D01*
X674206Y1130867D01*
X674147Y1130927D01*
X674132Y1130956D01*
X673924Y1131135D01*
X673701Y1131268D01*
X673464Y1131358D01*
X673241Y1131432D01*
X673047Y1131462D01*
X672899Y1131477D01*
X672839Y1131491D01*
X672750D01*
X672453Y1131477D01*
X672186Y1131417D01*
X671963Y1131343D01*
X671769Y1131254D01*
X671621Y1131150D01*
X671502Y1131075D01*
X671443Y1131016D01*
X671413Y1131001D01*
X671235Y1130808D01*
X671116Y1130600D01*
X671027Y1130407D01*
X670952Y1130213D01*
X670923Y1130050D01*
X670908Y1129916D01*
X670893Y1129827D01*
Y1129812D01*
Y1129798D01*
X670923Y1129545D01*
X670982Y1129277D01*
X671071Y1129040D01*
X671175Y1128817D01*
X671279Y1128624D01*
X671368Y1128475D01*
X671398Y1128416D01*
X671428Y1128371D01*
X671458Y1128356D01*
Y1128341D01*
X671576Y1128193D01*
X671710Y1128029D01*
X671859Y1127866D01*
X672037Y1127702D01*
X672394Y1127361D01*
X672750Y1127019D01*
X673077Y1126737D01*
X673226Y1126603D01*
X673360Y1126499D01*
X673464Y1126395D01*
X673538Y1126335D01*
X673597Y1126291D01*
X673612Y1126276D01*
X673969Y1125964D01*
X674296Y1125682D01*
X674563Y1125429D01*
X674786Y1125221D01*
X674964Y1125043D01*
X675083Y1124909D01*
X675157Y1124820D01*
X675187Y1124805D01*
Y1124790D01*
X675380Y1124552D01*
X675529Y1124329D01*
X675677Y1124107D01*
X675781Y1123913D01*
X675871Y1123735D01*
X675930Y1123616D01*
X675960Y1123527D01*
X675975Y1123512D01*
Y1123497D01*
X676019Y1123349D01*
X676064Y1123200D01*
X676079Y1123066D01*
X676094Y1122947D01*
X676108Y1122843D01*
Y1122754D01*
Y1122695D01*
Y1122680D01*
X669645D01*
Y1123824D01*
X674444D01*
X674281Y1124062D01*
X674117Y1124255D01*
X674043Y1124344D01*
X673984Y1124404D01*
X673954Y1124448D01*
X673939Y1124463D01*
X673865Y1124537D01*
X673790Y1124612D01*
X673597Y1124790D01*
X673360Y1124998D01*
X673137Y1125206D01*
X672914Y1125399D01*
X672735Y1125548D01*
X672661Y1125607D01*
X672602Y1125652D01*
X672572Y1125682D01*
X672557Y1125696D01*
X672319Y1125904D01*
X672111Y1126083D01*
X671903Y1126261D01*
X671725Y1126424D01*
X671562Y1126588D01*
X671413Y1126722D01*
X671264Y1126855D01*
X671145Y1126974D01*
X671041Y1127078D01*
X670952Y1127167D01*
X670819Y1127301D01*
X670744Y1127390D01*
X670715Y1127420D01*
X670521Y1127658D01*
X670343Y1127866D01*
X670209Y1128074D01*
X670105Y1128252D01*
X670016Y1128401D01*
X669957Y1128505D01*
X669927Y1128579D01*
X669912Y1128609D01*
X669823Y1128817D01*
X669764Y1129025D01*
X669719Y1129218D01*
X669689Y1129396D01*
X669674Y1129545D01*
X669660Y1129664D01*
Y1129738D01*
Y1129768D01*
X669674Y1129976D01*
X669689Y1130184D01*
X669793Y1130555D01*
X669927Y1130882D01*
X670076Y1131164D01*
X670224Y1131387D01*
X670298Y1131477D01*
X670358Y1131566D01*
X670417Y1131625D01*
X670462Y1131670D01*
X670477Y1131685D01*
X670492Y1131699D01*
X670655Y1131833D01*
X670819Y1131967D01*
X670997Y1132071D01*
X671190Y1132160D01*
X671562Y1132294D01*
X671918Y1132383D01*
X672082Y1132428D01*
X672230Y1132442D01*
X672364Y1132457D01*
X672483Y1132472D01*
X672587Y1132487D01*
X672720D01*
X672973Y1132472D01*
D02*
G37*
G36*
X686851Y1122680D02*
X685603D01*
Y1130986D01*
X682795Y1122680D01*
X681636D01*
X678783Y1130853D01*
Y1122680D01*
X677535D01*
Y1132442D01*
X679288D01*
X681621Y1125652D01*
X681740Y1125280D01*
X681859Y1124968D01*
X681948Y1124701D01*
X682007Y1124478D01*
X682067Y1124314D01*
X682111Y1124196D01*
X682126Y1124121D01*
X682141Y1124092D01*
X682201Y1124285D01*
X682275Y1124522D01*
X682349Y1124760D01*
X682423Y1124998D01*
X682498Y1125206D01*
X682557Y1125369D01*
X682572Y1125444D01*
X682587Y1125488D01*
X682602Y1125518D01*
Y1125533D01*
X684920Y1132442D01*
X686851D01*
Y1122680D01*
D02*
G37*
G36*
X695960D02*
X691904D01*
X691606Y1122710D01*
X691339Y1122725D01*
X691101Y1122754D01*
X690923Y1122784D01*
X690789Y1122799D01*
X690700Y1122829D01*
X690670D01*
X690447Y1122903D01*
X690239Y1122977D01*
X690046Y1123052D01*
X689898Y1123126D01*
X689764Y1123200D01*
X689675Y1123260D01*
X689615Y1123289D01*
X689600Y1123304D01*
X689452Y1123438D01*
X689303Y1123586D01*
X689184Y1123735D01*
X689080Y1123884D01*
X689006Y1124017D01*
X688932Y1124121D01*
X688902Y1124196D01*
X688887Y1124225D01*
X688783Y1124448D01*
X688709Y1124671D01*
X688664Y1124894D01*
X688620Y1125087D01*
X688605Y1125251D01*
X688590Y1125384D01*
Y1125473D01*
Y1125503D01*
X688605Y1125815D01*
X688664Y1126098D01*
X688738Y1126335D01*
X688828Y1126558D01*
X688932Y1126737D01*
X689006Y1126870D01*
X689065Y1126945D01*
X689080Y1126974D01*
X689273Y1127197D01*
X689496Y1127375D01*
X689719Y1127524D01*
X689942Y1127658D01*
X690135Y1127747D01*
X690299Y1127821D01*
X690358Y1127836D01*
X690403Y1127851D01*
X690433Y1127866D01*
X690447D01*
X690195Y1127999D01*
X689987Y1128148D01*
X689808Y1128282D01*
X689660Y1128430D01*
X689556Y1128549D01*
X689467Y1128653D01*
X689422Y1128713D01*
X689407Y1128743D01*
X689288Y1128951D01*
X689214Y1129173D01*
X689155Y1129367D01*
X689110Y1129545D01*
X689080Y1129708D01*
X689065Y1129827D01*
Y1129902D01*
Y1129931D01*
X689080Y1130184D01*
X689125Y1130422D01*
X689184Y1130630D01*
X689259Y1130823D01*
X689333Y1130986D01*
X689392Y1131120D01*
X689437Y1131194D01*
X689452Y1131224D01*
X689615Y1131447D01*
X689779Y1131625D01*
X689957Y1131789D01*
X690135Y1131922D01*
X690284Y1132011D01*
X690403Y1132086D01*
X690492Y1132130D01*
X690507Y1132145D01*
X690522D01*
X690789Y1132249D01*
X691086Y1132324D01*
X691383Y1132368D01*
X691666Y1132413D01*
X691918Y1132428D01*
X692022D01*
X692126Y1132442D01*
X695960D01*
Y1122680D01*
D02*
G37*
G36*
X667698D02*
X666331D01*
Y1124047D01*
X667698D01*
Y1122680D01*
D02*
G37*
G36*
X661784Y1132457D02*
X662126Y1132398D01*
X662438Y1132309D01*
X662691Y1132205D01*
X662899Y1132086D01*
X663047Y1131997D01*
X663107Y1131967D01*
X663151Y1131937D01*
X663166Y1131907D01*
X663181D01*
X663434Y1131670D01*
X663642Y1131417D01*
X663820Y1131150D01*
X663969Y1130882D01*
X664087Y1130644D01*
X664132Y1130540D01*
X664162Y1130451D01*
X664192Y1130377D01*
X664221Y1130318D01*
X664236Y1130288D01*
Y1130273D01*
X664296Y1130065D01*
X664355Y1129857D01*
X664429Y1129396D01*
X664489Y1128936D01*
X664533Y1128490D01*
X664548Y1128282D01*
X664563Y1128089D01*
Y1127925D01*
X664578Y1127777D01*
Y1127658D01*
Y1127569D01*
Y1127509D01*
Y1127494D01*
X664563Y1127004D01*
X664533Y1126528D01*
X664489Y1126112D01*
X664429Y1125711D01*
X664355Y1125355D01*
X664281Y1125028D01*
X664192Y1124731D01*
X664102Y1124478D01*
X664013Y1124240D01*
X663924Y1124047D01*
X663850Y1123884D01*
X663775Y1123750D01*
X663716Y1123646D01*
X663671Y1123571D01*
X663642Y1123527D01*
X663627Y1123512D01*
X663463Y1123334D01*
X663300Y1123185D01*
X663122Y1123052D01*
X662928Y1122933D01*
X662750Y1122843D01*
X662557Y1122754D01*
X662200Y1122635D01*
X662037Y1122606D01*
X661888Y1122576D01*
X661755Y1122546D01*
X661636Y1122531D01*
X661532Y1122517D01*
X661398D01*
X661012Y1122546D01*
X660670Y1122606D01*
X660373Y1122695D01*
X660105Y1122799D01*
X659912Y1122903D01*
X659749Y1122992D01*
X659704Y1123037D01*
X659660Y1123052D01*
X659645Y1123081D01*
X659630D01*
X659377Y1123319D01*
X659169Y1123586D01*
X658991Y1123854D01*
X658842Y1124121D01*
X658723Y1124359D01*
X658679Y1124448D01*
X658634Y1124537D01*
X658605Y1124612D01*
X658590Y1124671D01*
X658575Y1124701D01*
Y1124716D01*
X658515Y1124924D01*
X658456Y1125132D01*
X658367Y1125592D01*
X658307Y1126053D01*
X658263Y1126499D01*
X658248Y1126707D01*
X658233Y1126900D01*
Y1127063D01*
X658218Y1127212D01*
Y1127331D01*
Y1127420D01*
Y1127479D01*
Y1127494D01*
X658233Y1128014D01*
Y1128237D01*
X658248Y1128460D01*
X658263Y1128668D01*
X658292Y1128861D01*
X658307Y1129025D01*
X658322Y1129188D01*
X658352Y1129322D01*
X658367Y1129456D01*
X658382Y1129560D01*
X658411Y1129634D01*
X658426Y1129708D01*
Y1129753D01*
X658441Y1129783D01*
Y1129798D01*
X658530Y1130109D01*
X658634Y1130392D01*
X658738Y1130644D01*
X658827Y1130853D01*
X658916Y1131016D01*
X658991Y1131150D01*
X659035Y1131224D01*
X659050Y1131254D01*
X659199Y1131462D01*
X659362Y1131640D01*
X659526Y1131803D01*
X659674Y1131937D01*
X659823Y1132026D01*
X659927Y1132101D01*
X660001Y1132145D01*
X660031Y1132160D01*
X660254Y1132264D01*
X660492Y1132353D01*
X660729Y1132413D01*
X660937Y1132442D01*
X661116Y1132472D01*
X661264Y1132487D01*
X661398D01*
X661784Y1132457D01*
D02*
G37*
G36*
X621301Y1095515D02*
X620098D01*
Y1096882D01*
X621301D01*
Y1095515D01*
D02*
G37*
G36*
X644853Y1094342D02*
X645106Y1094312D01*
X645313Y1094252D01*
X645507Y1094193D01*
X645655Y1094133D01*
X645774Y1094074D01*
X645848Y1094044D01*
X645878Y1094029D01*
X646071Y1093911D01*
X646250Y1093762D01*
X646398Y1093628D01*
X646517Y1093494D01*
X646621Y1093376D01*
X646695Y1093287D01*
X646740Y1093227D01*
X646755Y1093197D01*
Y1094193D01*
X647825D01*
Y1087120D01*
X646621D01*
Y1090790D01*
X646606Y1091132D01*
X646591Y1091429D01*
X646562Y1091682D01*
X646517Y1091890D01*
X646487Y1092053D01*
X646458Y1092172D01*
X646443Y1092232D01*
X646428Y1092261D01*
X646339Y1092439D01*
X646250Y1092603D01*
X646146Y1092737D01*
X646042Y1092856D01*
X645953Y1092930D01*
X645878Y1093004D01*
X645819Y1093034D01*
X645804Y1093049D01*
X645640Y1093138D01*
X645477Y1093197D01*
X645313Y1093257D01*
X645180Y1093287D01*
X645046Y1093301D01*
X644957Y1093316D01*
X644868D01*
X644630Y1093301D01*
X644437Y1093257D01*
X644273Y1093183D01*
X644140Y1093123D01*
X644036Y1093049D01*
X643976Y1092974D01*
X643932Y1092930D01*
X643917Y1092915D01*
X643813Y1092752D01*
X643738Y1092558D01*
X643694Y1092365D01*
X643649Y1092157D01*
X643634Y1091994D01*
X643620Y1091845D01*
Y1091786D01*
Y1091741D01*
Y1091726D01*
Y1091711D01*
Y1087120D01*
X642416D01*
Y1091221D01*
X642401Y1091607D01*
X642342Y1091934D01*
X642267Y1092202D01*
X642163Y1092425D01*
X642074Y1092603D01*
X642000Y1092722D01*
X641941Y1092781D01*
X641926Y1092811D01*
X641732Y1092974D01*
X641510Y1093108D01*
X641302Y1093197D01*
X641108Y1093257D01*
X640945Y1093287D01*
X640796Y1093316D01*
X640677D01*
X640529Y1093301D01*
X640395Y1093287D01*
X640262Y1093257D01*
X640157Y1093227D01*
X640083Y1093183D01*
X640024Y1093153D01*
X639979Y1093138D01*
X639964Y1093123D01*
X639860Y1093049D01*
X639771Y1092960D01*
X639697Y1092870D01*
X639637Y1092796D01*
X639593Y1092722D01*
X639563Y1092662D01*
X639533Y1092618D01*
Y1092603D01*
X639489Y1092469D01*
X639459Y1092306D01*
X639429Y1091964D01*
X639414Y1091815D01*
Y1091682D01*
Y1091593D01*
Y1091578D01*
Y1091563D01*
Y1087120D01*
X638211D01*
Y1091964D01*
Y1092187D01*
X638241Y1092395D01*
X638300Y1092766D01*
X638389Y1093064D01*
X638493Y1093316D01*
X638612Y1093509D01*
X638701Y1093658D01*
X638761Y1093732D01*
X638790Y1093762D01*
X639028Y1093955D01*
X639281Y1094104D01*
X639548Y1094208D01*
X639816Y1094282D01*
X640039Y1094327D01*
X640143Y1094342D01*
X640232D01*
X640306Y1094356D01*
X640410D01*
X640663Y1094342D01*
X640886Y1094297D01*
X641108Y1094238D01*
X641317Y1094163D01*
X641703Y1093955D01*
X641866Y1093851D01*
X642015Y1093732D01*
X642149Y1093613D01*
X642267Y1093509D01*
X642372Y1093405D01*
X642461Y1093301D01*
X642520Y1093227D01*
X642565Y1093168D01*
X642594Y1093123D01*
X642609Y1093108D01*
X642698Y1093316D01*
X642802Y1093509D01*
X642921Y1093658D01*
X643040Y1093792D01*
X643144Y1093896D01*
X643233Y1093970D01*
X643293Y1094015D01*
X643322Y1094029D01*
X643516Y1094133D01*
X643724Y1094223D01*
X643947Y1094282D01*
X644140Y1094312D01*
X644318Y1094342D01*
X644467Y1094356D01*
X644600D01*
X644853Y1094342D01*
D02*
G37*
G36*
X683040D02*
X683353Y1094312D01*
X683620Y1094282D01*
X683858Y1094238D01*
X684051Y1094178D01*
X684200Y1094148D01*
X684244Y1094133D01*
X684289Y1094119D01*
X684304Y1094104D01*
X684318D01*
X684556Y1094000D01*
X684764Y1093881D01*
X684957Y1093762D01*
X685106Y1093658D01*
X685225Y1093554D01*
X685299Y1093465D01*
X685359Y1093405D01*
X685373Y1093391D01*
X685507Y1093212D01*
X685611Y1093004D01*
X685700Y1092811D01*
X685775Y1092618D01*
X685819Y1092439D01*
X685864Y1092306D01*
X685879Y1092217D01*
X685893Y1092202D01*
Y1092187D01*
X684720Y1092023D01*
X684645Y1092276D01*
X684541Y1092499D01*
X684452Y1092677D01*
X684348Y1092826D01*
X684259Y1092930D01*
X684185Y1093004D01*
X684140Y1093049D01*
X684125Y1093064D01*
X683962Y1093168D01*
X683754Y1093242D01*
X683561Y1093287D01*
X683353Y1093331D01*
X683159Y1093346D01*
X683011Y1093361D01*
X682877D01*
X682565Y1093346D01*
X682283Y1093301D01*
X682045Y1093227D01*
X681852Y1093153D01*
X681703Y1093079D01*
X681599Y1093004D01*
X681525Y1092960D01*
X681510Y1092945D01*
X681391Y1092811D01*
X681317Y1092662D01*
X681257Y1092484D01*
X681213Y1092321D01*
X681183Y1092172D01*
X681168Y1092038D01*
Y1091949D01*
Y1091934D01*
Y1091919D01*
Y1091890D01*
Y1091845D01*
Y1091741D01*
X681183Y1091652D01*
Y1091622D01*
Y1091607D01*
X681317Y1091563D01*
X681466Y1091518D01*
X681807Y1091429D01*
X682164Y1091370D01*
X682506Y1091310D01*
X682832Y1091251D01*
X682966Y1091236D01*
X683085Y1091221D01*
X683189Y1091206D01*
X683263D01*
X683308Y1091191D01*
X683323D01*
X683576Y1091162D01*
X683783Y1091132D01*
X683977Y1091102D01*
X684125Y1091072D01*
X684244Y1091043D01*
X684318Y1091028D01*
X684378Y1091013D01*
X684393D01*
X684571Y1090954D01*
X684734Y1090894D01*
X684868Y1090835D01*
X685002Y1090760D01*
X685106Y1090701D01*
X685180Y1090656D01*
X685240Y1090627D01*
X685255Y1090612D01*
X685388Y1090508D01*
X685507Y1090404D01*
X685626Y1090285D01*
X685715Y1090181D01*
X685789Y1090077D01*
X685834Y1090003D01*
X685864Y1089943D01*
X685879Y1089928D01*
X685953Y1089765D01*
X686012Y1089602D01*
X686042Y1089438D01*
X686072Y1089289D01*
X686087Y1089171D01*
X686102Y1089066D01*
Y1089007D01*
Y1088977D01*
X686072Y1088665D01*
X685997Y1088368D01*
X685908Y1088130D01*
X685789Y1087922D01*
X685671Y1087744D01*
X685581Y1087625D01*
X685507Y1087551D01*
X685477Y1087521D01*
X685225Y1087328D01*
X684928Y1087194D01*
X684645Y1087090D01*
X684348Y1087031D01*
X684096Y1086986D01*
X683977Y1086971D01*
X683887D01*
X683798Y1086957D01*
X683694D01*
X683427Y1086971D01*
X683189Y1087001D01*
X682966Y1087031D01*
X682758Y1087075D01*
X682595Y1087120D01*
X682476Y1087165D01*
X682402Y1087179D01*
X682372Y1087194D01*
X682134Y1087298D01*
X681911Y1087417D01*
X681688Y1087551D01*
X681495Y1087700D01*
X681317Y1087818D01*
X681198Y1087922D01*
X681109Y1087982D01*
X681079Y1088011D01*
X681049Y1087818D01*
X681020Y1087655D01*
X680990Y1087506D01*
X680945Y1087373D01*
X680901Y1087269D01*
X680871Y1087179D01*
X680856Y1087135D01*
X680841Y1087120D01*
X679593D01*
X679727Y1087417D01*
X679786Y1087566D01*
X679831Y1087685D01*
X679861Y1087789D01*
X679876Y1087878D01*
X679890Y1087937D01*
Y1087952D01*
X679905Y1088056D01*
X679920Y1088175D01*
Y1088309D01*
X679935Y1088472D01*
X679950Y1088814D01*
Y1089185D01*
X679965Y1089527D01*
Y1089676D01*
Y1089809D01*
Y1089913D01*
Y1090003D01*
Y1090062D01*
Y1090077D01*
Y1091682D01*
Y1091964D01*
X679980Y1092187D01*
X679994Y1092380D01*
Y1092529D01*
X680009Y1092647D01*
X680024Y1092722D01*
X680039Y1092766D01*
Y1092781D01*
X680084Y1092960D01*
X680143Y1093123D01*
X680202Y1093257D01*
X680262Y1093376D01*
X680321Y1093480D01*
X680366Y1093539D01*
X680396Y1093584D01*
X680411Y1093598D01*
X680529Y1093717D01*
X680648Y1093821D01*
X680797Y1093911D01*
X680931Y1093985D01*
X681049Y1094044D01*
X681153Y1094104D01*
X681213Y1094119D01*
X681243Y1094133D01*
X681466Y1094208D01*
X681703Y1094267D01*
X681956Y1094297D01*
X682194Y1094327D01*
X682402Y1094342D01*
X682565Y1094356D01*
X682714D01*
X683040Y1094342D01*
D02*
G37*
G36*
X656413Y1087105D02*
X656458Y1086971D01*
X656502Y1086882D01*
X656517Y1086823D01*
X656532Y1086808D01*
X656621Y1086570D01*
X656695Y1086362D01*
X656755Y1086214D01*
X656799Y1086095D01*
X656844Y1086006D01*
X656874Y1085961D01*
X656889Y1085931D01*
Y1085916D01*
X657022Y1085753D01*
X657156Y1085634D01*
X657201Y1085590D01*
X657245Y1085560D01*
X657275Y1085530D01*
X657290D01*
X657379Y1085486D01*
X657483Y1085456D01*
X657691Y1085411D01*
X657795D01*
X657855Y1085396D01*
X657929D01*
X658167Y1085411D01*
X658375Y1085456D01*
X658479Y1085486D01*
X658553Y1085500D01*
X658597Y1085515D01*
X658612D01*
X658479Y1084401D01*
X658181Y1084312D01*
X658048Y1084282D01*
X657929Y1084267D01*
X657840D01*
X657765Y1084252D01*
X657706D01*
X657498Y1084267D01*
X657320Y1084297D01*
X657141Y1084341D01*
X657008Y1084401D01*
X656889Y1084445D01*
X656799Y1084490D01*
X656740Y1084520D01*
X656725Y1084535D01*
X656577Y1084653D01*
X656428Y1084787D01*
X656309Y1084936D01*
X656190Y1085070D01*
X656101Y1085203D01*
X656042Y1085307D01*
X655997Y1085367D01*
X655982Y1085396D01*
X655938Y1085486D01*
X655878Y1085590D01*
X655774Y1085842D01*
X655670Y1086095D01*
X655551Y1086362D01*
X655462Y1086615D01*
X655418Y1086719D01*
X655388Y1086808D01*
X655358Y1086897D01*
X655329Y1086957D01*
X655314Y1086986D01*
Y1087001D01*
X652639Y1094193D01*
X653828D01*
X655343Y1090062D01*
X655447Y1089765D01*
X655536Y1089483D01*
X655626Y1089215D01*
X655700Y1088977D01*
X655759Y1088784D01*
X655789Y1088621D01*
X655819Y1088561D01*
Y1088517D01*
X655834Y1088502D01*
Y1088487D01*
X655923Y1088799D01*
X656012Y1089096D01*
X656101Y1089379D01*
X656176Y1089616D01*
X656250Y1089824D01*
X656309Y1089988D01*
X656324Y1090047D01*
X656339Y1090092D01*
X656354Y1090107D01*
Y1090122D01*
X657825Y1094193D01*
X659103D01*
X656413Y1087105D01*
D02*
G37*
G36*
X677914Y1095931D02*
Y1094193D01*
X678806D01*
Y1093257D01*
X677914D01*
Y1089185D01*
Y1088992D01*
Y1088814D01*
X677899Y1088651D01*
Y1088502D01*
X677885Y1088368D01*
X677870Y1088264D01*
X677840Y1088071D01*
X677825Y1087922D01*
X677795Y1087833D01*
X677781Y1087774D01*
Y1087759D01*
X677721Y1087640D01*
X677632Y1087536D01*
X677558Y1087447D01*
X677468Y1087373D01*
X677394Y1087313D01*
X677335Y1087269D01*
X677290Y1087239D01*
X677275Y1087224D01*
X677127Y1087165D01*
X676963Y1087120D01*
X676785Y1087075D01*
X676621Y1087061D01*
X676473Y1087046D01*
X676354Y1087031D01*
X676250D01*
X675938Y1087046D01*
X675789Y1087061D01*
X675656Y1087090D01*
X675522Y1087105D01*
X675433Y1087120D01*
X675373Y1087135D01*
X675344D01*
X675507Y1088190D01*
X675730Y1088160D01*
X675819D01*
X675893Y1088145D01*
X676042D01*
X676220Y1088160D01*
X676354Y1088190D01*
X676428Y1088205D01*
X676458Y1088220D01*
X676547Y1088294D01*
X676607Y1088368D01*
X676636Y1088428D01*
X676651Y1088457D01*
X676666Y1088532D01*
X676681Y1088621D01*
X676696Y1088844D01*
X676711Y1088948D01*
Y1089037D01*
Y1089096D01*
Y1089111D01*
Y1093257D01*
X675507D01*
Y1094193D01*
X676711D01*
Y1096659D01*
X677914Y1095931D01*
D02*
G37*
G36*
X674125D02*
Y1094193D01*
X675017D01*
Y1093257D01*
X674125D01*
Y1089185D01*
Y1088992D01*
Y1088814D01*
X674110Y1088651D01*
Y1088502D01*
X674095Y1088368D01*
X674081Y1088264D01*
X674051Y1088071D01*
X674036Y1087922D01*
X674006Y1087833D01*
X673991Y1087774D01*
Y1087759D01*
X673932Y1087640D01*
X673843Y1087536D01*
X673768Y1087447D01*
X673679Y1087373D01*
X673605Y1087313D01*
X673546Y1087269D01*
X673501Y1087239D01*
X673486Y1087224D01*
X673338Y1087165D01*
X673174Y1087120D01*
X672996Y1087075D01*
X672832Y1087061D01*
X672684Y1087046D01*
X672565Y1087031D01*
X672461D01*
X672149Y1087046D01*
X672000Y1087061D01*
X671867Y1087090D01*
X671733Y1087105D01*
X671644Y1087120D01*
X671584Y1087135D01*
X671554D01*
X671718Y1088190D01*
X671941Y1088160D01*
X672030D01*
X672104Y1088145D01*
X672253D01*
X672431Y1088160D01*
X672565Y1088190D01*
X672639Y1088205D01*
X672669Y1088220D01*
X672758Y1088294D01*
X672818Y1088368D01*
X672847Y1088428D01*
X672862Y1088457D01*
X672877Y1088532D01*
X672892Y1088621D01*
X672907Y1088844D01*
X672922Y1088948D01*
Y1089037D01*
Y1089096D01*
Y1089111D01*
Y1093257D01*
X671718D01*
Y1094193D01*
X672922D01*
Y1096659D01*
X674125Y1095931D01*
D02*
G37*
G36*
X618077D02*
Y1094193D01*
X618969D01*
Y1093257D01*
X618077D01*
Y1089185D01*
Y1088992D01*
Y1088814D01*
X618062Y1088651D01*
Y1088502D01*
X618047Y1088368D01*
X618032Y1088264D01*
X618003Y1088071D01*
X617988Y1087922D01*
X617958Y1087833D01*
X617943Y1087774D01*
Y1087759D01*
X617884Y1087640D01*
X617795Y1087536D01*
X617720Y1087447D01*
X617631Y1087373D01*
X617557Y1087313D01*
X617497Y1087269D01*
X617453Y1087239D01*
X617438Y1087224D01*
X617290Y1087165D01*
X617126Y1087120D01*
X616948Y1087075D01*
X616784Y1087061D01*
X616636Y1087046D01*
X616517Y1087031D01*
X616413D01*
X616101Y1087046D01*
X615952Y1087061D01*
X615818Y1087090D01*
X615685Y1087105D01*
X615596Y1087120D01*
X615536Y1087135D01*
X615506D01*
X615670Y1088190D01*
X615893Y1088160D01*
X615982D01*
X616056Y1088145D01*
X616205D01*
X616383Y1088160D01*
X616517Y1088190D01*
X616591Y1088205D01*
X616621Y1088220D01*
X616710Y1088294D01*
X616769Y1088368D01*
X616799Y1088428D01*
X616814Y1088457D01*
X616829Y1088532D01*
X616844Y1088621D01*
X616859Y1088844D01*
X616873Y1088948D01*
Y1089037D01*
Y1089096D01*
Y1089111D01*
Y1093257D01*
X615670D01*
Y1094193D01*
X616873D01*
Y1096659D01*
X618077Y1095931D01*
D02*
G37*
G36*
X667914Y1094342D02*
X668167Y1094312D01*
X668404Y1094267D01*
X668627Y1094208D01*
X668850Y1094119D01*
X669043Y1094044D01*
X669222Y1093955D01*
X669385Y1093866D01*
X669534Y1093762D01*
X669653Y1093673D01*
X669771Y1093598D01*
X669861Y1093524D01*
X669935Y1093450D01*
X669979Y1093405D01*
X670009Y1093376D01*
X670024Y1093361D01*
X670188Y1093168D01*
X670321Y1092960D01*
X670440Y1092737D01*
X670544Y1092514D01*
X670633Y1092276D01*
X670708Y1092053D01*
X670812Y1091607D01*
X670856Y1091399D01*
X670886Y1091206D01*
X670901Y1091028D01*
X670916Y1090879D01*
X670930Y1090760D01*
Y1090656D01*
Y1090597D01*
Y1090582D01*
X670916Y1090270D01*
X670886Y1089973D01*
X670841Y1089691D01*
X670782Y1089438D01*
X670722Y1089200D01*
X670648Y1088977D01*
X670559Y1088784D01*
X670470Y1088606D01*
X670396Y1088443D01*
X670306Y1088294D01*
X670232Y1088175D01*
X670158Y1088086D01*
X670113Y1088011D01*
X670069Y1087952D01*
X670039Y1087922D01*
X670024Y1087907D01*
X669846Y1087744D01*
X669653Y1087596D01*
X669459Y1087462D01*
X669251Y1087358D01*
X669058Y1087269D01*
X668850Y1087194D01*
X668464Y1087075D01*
X668271Y1087031D01*
X668107Y1087001D01*
X667959Y1086986D01*
X667825Y1086971D01*
X667721Y1086957D01*
X667572D01*
X667127Y1086986D01*
X666740Y1087046D01*
X666384Y1087150D01*
X666101Y1087254D01*
X665968Y1087313D01*
X665863Y1087358D01*
X665774Y1087417D01*
X665700Y1087462D01*
X665626Y1087492D01*
X665581Y1087521D01*
X665566Y1087551D01*
X665552D01*
X665284Y1087789D01*
X665046Y1088071D01*
X664868Y1088353D01*
X664719Y1088621D01*
X664601Y1088873D01*
X664556Y1088977D01*
X664526Y1089066D01*
X664497Y1089141D01*
X664482Y1089200D01*
X664467Y1089230D01*
Y1089245D01*
X665700Y1089408D01*
X665819Y1089141D01*
X665938Y1088903D01*
X666057Y1088710D01*
X666176Y1088561D01*
X666280Y1088428D01*
X666369Y1088353D01*
X666428Y1088294D01*
X666443Y1088279D01*
X666621Y1088160D01*
X666814Y1088086D01*
X667008Y1088026D01*
X667186Y1087982D01*
X667335Y1087952D01*
X667454Y1087937D01*
X667572D01*
X667884Y1087967D01*
X668167Y1088026D01*
X668419Y1088130D01*
X668642Y1088249D01*
X668806Y1088353D01*
X668939Y1088457D01*
X669014Y1088517D01*
X669043Y1088547D01*
X669237Y1088799D01*
X669400Y1089096D01*
X669504Y1089393D01*
X669593Y1089676D01*
X669653Y1089943D01*
X669667Y1090047D01*
X669682Y1090151D01*
Y1090226D01*
X669697Y1090300D01*
Y1090330D01*
Y1090344D01*
X664437D01*
X664422Y1090478D01*
Y1090582D01*
Y1090642D01*
Y1090656D01*
X664437Y1090983D01*
X664467Y1091281D01*
X664511Y1091563D01*
X664556Y1091815D01*
X664630Y1092068D01*
X664705Y1092291D01*
X664794Y1092484D01*
X664868Y1092677D01*
X664957Y1092841D01*
X665046Y1092974D01*
X665121Y1093093D01*
X665180Y1093197D01*
X665239Y1093272D01*
X665284Y1093331D01*
X665314Y1093361D01*
X665329Y1093376D01*
X665507Y1093554D01*
X665685Y1093702D01*
X665878Y1093836D01*
X666072Y1093940D01*
X666265Y1094044D01*
X666458Y1094119D01*
X666814Y1094238D01*
X666993Y1094282D01*
X667141Y1094312D01*
X667290Y1094327D01*
X667409Y1094342D01*
X667513Y1094356D01*
X667647D01*
X667914Y1094342D01*
D02*
G37*
G36*
X694690Y1087120D02*
X690633D01*
X690336Y1087150D01*
X690069Y1087165D01*
X689831Y1087194D01*
X689653Y1087224D01*
X689519Y1087239D01*
X689430Y1087269D01*
X689400D01*
X689177Y1087343D01*
X688969Y1087417D01*
X688776Y1087492D01*
X688627Y1087566D01*
X688494Y1087640D01*
X688405Y1087700D01*
X688345Y1087729D01*
X688330Y1087744D01*
X688182Y1087878D01*
X688033Y1088026D01*
X687914Y1088175D01*
X687810Y1088324D01*
X687736Y1088457D01*
X687662Y1088561D01*
X687632Y1088636D01*
X687617Y1088665D01*
X687513Y1088888D01*
X687439Y1089111D01*
X687394Y1089334D01*
X687350Y1089527D01*
X687335Y1089691D01*
X687320Y1089824D01*
Y1089913D01*
Y1089943D01*
X687335Y1090255D01*
X687394Y1090538D01*
X687468Y1090775D01*
X687558Y1090998D01*
X687662Y1091177D01*
X687736Y1091310D01*
X687795Y1091385D01*
X687810Y1091414D01*
X688003Y1091637D01*
X688226Y1091815D01*
X688449Y1091964D01*
X688672Y1092098D01*
X688865Y1092187D01*
X689029Y1092261D01*
X689088Y1092276D01*
X689133Y1092291D01*
X689163Y1092306D01*
X689177D01*
X688925Y1092439D01*
X688717Y1092588D01*
X688538Y1092722D01*
X688390Y1092870D01*
X688286Y1092989D01*
X688197Y1093093D01*
X688152Y1093153D01*
X688137Y1093183D01*
X688018Y1093391D01*
X687944Y1093613D01*
X687885Y1093807D01*
X687840Y1093985D01*
X687810Y1094148D01*
X687795Y1094267D01*
Y1094342D01*
Y1094371D01*
X687810Y1094624D01*
X687855Y1094862D01*
X687914Y1095070D01*
X687989Y1095263D01*
X688063Y1095426D01*
X688122Y1095560D01*
X688167Y1095634D01*
X688182Y1095664D01*
X688345Y1095887D01*
X688509Y1096065D01*
X688687Y1096229D01*
X688865Y1096362D01*
X689014Y1096451D01*
X689133Y1096526D01*
X689222Y1096570D01*
X689237Y1096585D01*
X689252D01*
X689519Y1096689D01*
X689816Y1096764D01*
X690113Y1096808D01*
X690396Y1096853D01*
X690648Y1096868D01*
X690752D01*
X690856Y1096882D01*
X694690D01*
Y1087120D01*
D02*
G37*
G36*
X660514Y1094342D02*
X660663Y1094312D01*
X660797Y1094282D01*
X660901Y1094238D01*
X661005Y1094178D01*
X661079Y1094148D01*
X661124Y1094119D01*
X661138Y1094104D01*
X661272Y1094000D01*
X661391Y1093851D01*
X661525Y1093688D01*
X661644Y1093524D01*
X661733Y1093376D01*
X661807Y1093242D01*
X661867Y1093153D01*
X661881Y1093138D01*
Y1094193D01*
X662966D01*
Y1087120D01*
X661762D01*
Y1090820D01*
X661748Y1091102D01*
X661733Y1091355D01*
X661703Y1091593D01*
X661658Y1091801D01*
X661629Y1091979D01*
X661599Y1092113D01*
X661584Y1092187D01*
X661569Y1092217D01*
X661510Y1092365D01*
X661450Y1092499D01*
X661376Y1092618D01*
X661302Y1092707D01*
X661242Y1092781D01*
X661183Y1092841D01*
X661153Y1092870D01*
X661138Y1092885D01*
X661020Y1092960D01*
X660901Y1093019D01*
X660782Y1093064D01*
X660678Y1093093D01*
X660574Y1093108D01*
X660499Y1093123D01*
X660440D01*
X660277Y1093108D01*
X660113Y1093079D01*
X659965Y1093034D01*
X659831Y1092989D01*
X659727Y1092945D01*
X659638Y1092900D01*
X659578Y1092870D01*
X659563Y1092856D01*
X659132Y1093955D01*
X659370Y1094089D01*
X659593Y1094193D01*
X659801Y1094252D01*
X659979Y1094312D01*
X660143Y1094342D01*
X660262Y1094356D01*
X660366D01*
X660514Y1094342D01*
D02*
G37*
G36*
X625833D02*
X626086Y1094312D01*
X626324Y1094252D01*
X626532Y1094178D01*
X626740Y1094089D01*
X626918Y1093985D01*
X627081Y1093881D01*
X627245Y1093777D01*
X627379Y1093658D01*
X627483Y1093554D01*
X627587Y1093450D01*
X627661Y1093361D01*
X627735Y1093287D01*
X627780Y1093227D01*
X627795Y1093197D01*
X627810Y1093183D01*
Y1094193D01*
X628894D01*
Y1087120D01*
X627691D01*
Y1090983D01*
Y1091221D01*
X627661Y1091444D01*
X627646Y1091652D01*
X627602Y1091845D01*
X627557Y1092009D01*
X627513Y1092157D01*
X627468Y1092291D01*
X627408Y1092410D01*
X627364Y1092514D01*
X627319Y1092603D01*
X627230Y1092722D01*
X627171Y1092796D01*
X627141Y1092826D01*
X626933Y1092989D01*
X626695Y1093108D01*
X626487Y1093197D01*
X626279Y1093257D01*
X626086Y1093287D01*
X625952Y1093316D01*
X625818D01*
X625640Y1093301D01*
X625492Y1093287D01*
X625343Y1093242D01*
X625224Y1093212D01*
X625120Y1093168D01*
X625046Y1093123D01*
X625001Y1093108D01*
X624986Y1093093D01*
X624868Y1093004D01*
X624763Y1092900D01*
X624674Y1092811D01*
X624600Y1092707D01*
X624556Y1092633D01*
X624526Y1092558D01*
X624496Y1092514D01*
Y1092499D01*
X624451Y1092350D01*
X624407Y1092187D01*
X624377Y1091994D01*
X624362Y1091830D01*
X624347Y1091667D01*
Y1091533D01*
Y1091444D01*
Y1091429D01*
Y1091414D01*
Y1087120D01*
X623144D01*
Y1091459D01*
Y1091756D01*
X623159Y1091994D01*
X623174Y1092202D01*
Y1092365D01*
X623189Y1092484D01*
X623203Y1092573D01*
X623218Y1092618D01*
Y1092633D01*
X623263Y1092811D01*
X623322Y1092989D01*
X623382Y1093138D01*
X623441Y1093257D01*
X623501Y1093361D01*
X623545Y1093450D01*
X623575Y1093494D01*
X623590Y1093509D01*
X623694Y1093643D01*
X623827Y1093762D01*
X623961Y1093866D01*
X624095Y1093955D01*
X624214Y1094029D01*
X624303Y1094074D01*
X624362Y1094104D01*
X624392Y1094119D01*
X624600Y1094193D01*
X624793Y1094252D01*
X625001Y1094297D01*
X625180Y1094327D01*
X625328Y1094342D01*
X625462Y1094356D01*
X625566D01*
X625833Y1094342D01*
D02*
G37*
G36*
X621301Y1087120D02*
X620098D01*
Y1094193D01*
X621301D01*
Y1087120D01*
D02*
G37*
G36*
X604466Y1094342D02*
X604615Y1094312D01*
X604748Y1094282D01*
X604852Y1094238D01*
X604957Y1094178D01*
X605031Y1094148D01*
X605075Y1094119D01*
X605090Y1094104D01*
X605224Y1094000D01*
X605343Y1093851D01*
X605477Y1093688D01*
X605595Y1093524D01*
X605685Y1093376D01*
X605759Y1093242D01*
X605818Y1093153D01*
X605833Y1093138D01*
Y1094193D01*
X606918D01*
Y1087120D01*
X605714D01*
Y1090820D01*
X605699Y1091102D01*
X605685Y1091355D01*
X605655Y1091593D01*
X605610Y1091801D01*
X605581Y1091979D01*
X605551Y1092113D01*
X605536Y1092187D01*
X605521Y1092217D01*
X605462Y1092365D01*
X605402Y1092499D01*
X605328Y1092618D01*
X605254Y1092707D01*
X605194Y1092781D01*
X605135Y1092841D01*
X605105Y1092870D01*
X605090Y1092885D01*
X604971Y1092960D01*
X604852Y1093019D01*
X604734Y1093064D01*
X604630Y1093093D01*
X604526Y1093108D01*
X604451Y1093123D01*
X604392D01*
X604228Y1093108D01*
X604065Y1093079D01*
X603916Y1093034D01*
X603783Y1092989D01*
X603679Y1092945D01*
X603590Y1092900D01*
X603530Y1092870D01*
X603515Y1092856D01*
X603084Y1093955D01*
X603322Y1094089D01*
X603545Y1094193D01*
X603753Y1094252D01*
X603931Y1094312D01*
X604095Y1094342D01*
X604213Y1094356D01*
X604318D01*
X604466Y1094342D01*
D02*
G37*
G36*
X633842D02*
X634080Y1094327D01*
X634511Y1094238D01*
X634897Y1094104D01*
X635061Y1094029D01*
X635209Y1093970D01*
X635358Y1093896D01*
X635477Y1093821D01*
X635581Y1093747D01*
X635670Y1093688D01*
X635744Y1093643D01*
X635789Y1093598D01*
X635819Y1093584D01*
X635834Y1093569D01*
X636027Y1093376D01*
X636190Y1093168D01*
X636339Y1092945D01*
X636458Y1092707D01*
X636562Y1092469D01*
X636651Y1092232D01*
X636725Y1091994D01*
X636785Y1091756D01*
X636829Y1091533D01*
X636859Y1091325D01*
X636889Y1091147D01*
X636903Y1090983D01*
Y1090850D01*
X636918Y1090746D01*
Y1090686D01*
Y1090656D01*
X636903Y1090330D01*
X636874Y1090017D01*
X636829Y1089735D01*
X636770Y1089468D01*
X636710Y1089230D01*
X636636Y1088992D01*
X636547Y1088799D01*
X636458Y1088606D01*
X636383Y1088443D01*
X636294Y1088309D01*
X636220Y1088190D01*
X636146Y1088086D01*
X636101Y1088011D01*
X636056Y1087952D01*
X636027Y1087922D01*
X636012Y1087907D01*
X635834Y1087744D01*
X635640Y1087596D01*
X635447Y1087462D01*
X635239Y1087358D01*
X635046Y1087269D01*
X634838Y1087194D01*
X634467Y1087075D01*
X634288Y1087031D01*
X634125Y1087001D01*
X633976Y1086986D01*
X633857Y1086971D01*
X633753Y1086957D01*
X633605D01*
X633263Y1086971D01*
X632951Y1087031D01*
X632668Y1087090D01*
X632416Y1087179D01*
X632208Y1087254D01*
X632044Y1087328D01*
X631985Y1087343D01*
X631940Y1087373D01*
X631926Y1087387D01*
X631911D01*
X631628Y1087566D01*
X631391Y1087759D01*
X631183Y1087952D01*
X631019Y1088145D01*
X630886Y1088324D01*
X630781Y1088457D01*
X630722Y1088561D01*
X630707Y1088576D01*
Y1088591D01*
X630573Y1088903D01*
X630469Y1089260D01*
X630395Y1089616D01*
X630336Y1089958D01*
X630321Y1090122D01*
X630306Y1090270D01*
Y1090404D01*
X630291Y1090523D01*
Y1090612D01*
Y1090686D01*
Y1090731D01*
Y1090746D01*
X630306Y1091058D01*
X630336Y1091340D01*
X630380Y1091622D01*
X630440Y1091875D01*
X630514Y1092113D01*
X630588Y1092321D01*
X630677Y1092529D01*
X630752Y1092707D01*
X630841Y1092856D01*
X630930Y1093004D01*
X631004Y1093123D01*
X631079Y1093212D01*
X631138Y1093287D01*
X631183Y1093346D01*
X631212Y1093376D01*
X631227Y1093391D01*
X631405Y1093554D01*
X631599Y1093702D01*
X631792Y1093836D01*
X631985Y1093955D01*
X632193Y1094044D01*
X632386Y1094119D01*
X632758Y1094238D01*
X632936Y1094282D01*
X633099Y1094312D01*
X633233Y1094327D01*
X633367Y1094342D01*
X633471Y1094356D01*
X633605D01*
X633842Y1094342D01*
D02*
G37*
G36*
X611866D02*
X612104Y1094327D01*
X612535Y1094238D01*
X612921Y1094104D01*
X613084Y1094029D01*
X613233Y1093970D01*
X613382Y1093896D01*
X613500Y1093821D01*
X613604Y1093747D01*
X613694Y1093688D01*
X613768Y1093643D01*
X613812Y1093598D01*
X613842Y1093584D01*
X613857Y1093569D01*
X614050Y1093376D01*
X614214Y1093168D01*
X614362Y1092945D01*
X614481Y1092707D01*
X614585Y1092469D01*
X614674Y1092232D01*
X614749Y1091994D01*
X614808Y1091756D01*
X614853Y1091533D01*
X614882Y1091325D01*
X614912Y1091147D01*
X614927Y1090983D01*
Y1090850D01*
X614942Y1090746D01*
Y1090686D01*
Y1090656D01*
X614927Y1090330D01*
X614897Y1090017D01*
X614853Y1089735D01*
X614793Y1089468D01*
X614734Y1089230D01*
X614659Y1088992D01*
X614570Y1088799D01*
X614481Y1088606D01*
X614407Y1088443D01*
X614318Y1088309D01*
X614243Y1088190D01*
X614169Y1088086D01*
X614124Y1088011D01*
X614080Y1087952D01*
X614050Y1087922D01*
X614035Y1087907D01*
X613857Y1087744D01*
X613664Y1087596D01*
X613471Y1087462D01*
X613263Y1087358D01*
X613069Y1087269D01*
X612862Y1087194D01*
X612490Y1087075D01*
X612312Y1087031D01*
X612148Y1087001D01*
X612000Y1086986D01*
X611881Y1086971D01*
X611777Y1086957D01*
X611628D01*
X611286Y1086971D01*
X610974Y1087031D01*
X610692Y1087090D01*
X610439Y1087179D01*
X610231Y1087254D01*
X610068Y1087328D01*
X610009Y1087343D01*
X609964Y1087373D01*
X609949Y1087387D01*
X609934D01*
X609652Y1087566D01*
X609414Y1087759D01*
X609206Y1087952D01*
X609043Y1088145D01*
X608909Y1088324D01*
X608805Y1088457D01*
X608745Y1088561D01*
X608731Y1088576D01*
Y1088591D01*
X608597Y1088903D01*
X608493Y1089260D01*
X608419Y1089616D01*
X608359Y1089958D01*
X608344Y1090122D01*
X608330Y1090270D01*
Y1090404D01*
X608315Y1090523D01*
Y1090612D01*
Y1090686D01*
Y1090731D01*
Y1090746D01*
X608330Y1091058D01*
X608359Y1091340D01*
X608404Y1091622D01*
X608463Y1091875D01*
X608537Y1092113D01*
X608612Y1092321D01*
X608701Y1092529D01*
X608775Y1092707D01*
X608864Y1092856D01*
X608954Y1093004D01*
X609028Y1093123D01*
X609102Y1093212D01*
X609162Y1093287D01*
X609206Y1093346D01*
X609236Y1093376D01*
X609251Y1093391D01*
X609429Y1093554D01*
X609622Y1093702D01*
X609815Y1093836D01*
X610009Y1093955D01*
X610217Y1094044D01*
X610410Y1094119D01*
X610781Y1094238D01*
X610960Y1094282D01*
X611123Y1094312D01*
X611257Y1094327D01*
X611390Y1094342D01*
X611494Y1094356D01*
X611628D01*
X611866Y1094342D01*
D02*
G37*
G36*
X692810Y1114692D02*
X693048Y1114677D01*
X693493Y1114588D01*
X693687Y1114544D01*
X693880Y1114484D01*
X694043Y1114410D01*
X694192Y1114350D01*
X694325Y1114276D01*
X694444Y1114217D01*
X694548Y1114142D01*
X694638Y1114098D01*
X694697Y1114053D01*
X694742Y1114009D01*
X694771Y1113994D01*
X694786Y1113979D01*
X694935Y1113830D01*
X695054Y1113682D01*
X695276Y1113340D01*
X695440Y1112998D01*
X695559Y1112656D01*
X695648Y1112359D01*
X695663Y1112225D01*
X695693Y1112107D01*
X695707Y1112018D01*
X695722Y1111943D01*
Y1111899D01*
Y1111884D01*
X694489Y1111750D01*
X694459Y1112077D01*
X694400Y1112359D01*
X694325Y1112597D01*
X694221Y1112805D01*
X694132Y1112968D01*
X694043Y1113087D01*
X693984Y1113147D01*
X693969Y1113176D01*
X693761Y1113355D01*
X693538Y1113488D01*
X693300Y1113578D01*
X693077Y1113652D01*
X692884Y1113682D01*
X692736Y1113697D01*
X692676Y1113711D01*
X692587D01*
X692290Y1113697D01*
X692022Y1113637D01*
X691799Y1113563D01*
X691606Y1113474D01*
X691458Y1113370D01*
X691339Y1113295D01*
X691279Y1113236D01*
X691250Y1113221D01*
X691071Y1113028D01*
X690953Y1112820D01*
X690863Y1112627D01*
X690789Y1112433D01*
X690759Y1112270D01*
X690744Y1112136D01*
X690730Y1112047D01*
Y1112032D01*
Y1112018D01*
X690759Y1111765D01*
X690819Y1111497D01*
X690908Y1111260D01*
X691012Y1111037D01*
X691116Y1110844D01*
X691205Y1110695D01*
X691235Y1110636D01*
X691265Y1110591D01*
X691294Y1110576D01*
Y1110561D01*
X691413Y1110413D01*
X691547Y1110249D01*
X691695Y1110086D01*
X691874Y1109922D01*
X692230Y1109581D01*
X692587Y1109239D01*
X692914Y1108957D01*
X693063Y1108823D01*
X693196Y1108719D01*
X693300Y1108615D01*
X693374Y1108555D01*
X693434Y1108511D01*
X693449Y1108496D01*
X693805Y1108184D01*
X694132Y1107902D01*
X694400Y1107649D01*
X694623Y1107441D01*
X694801Y1107263D01*
X694920Y1107129D01*
X694994Y1107040D01*
X695024Y1107025D01*
Y1107010D01*
X695217Y1106772D01*
X695366Y1106549D01*
X695514Y1106327D01*
X695618Y1106133D01*
X695707Y1105955D01*
X695767Y1105836D01*
X695797Y1105747D01*
X695811Y1105732D01*
Y1105717D01*
X695856Y1105569D01*
X695901Y1105420D01*
X695915Y1105286D01*
X695930Y1105167D01*
X695945Y1105063D01*
Y1104974D01*
Y1104915D01*
Y1104900D01*
X689482D01*
Y1106044D01*
X694281D01*
X694118Y1106282D01*
X693954Y1106475D01*
X693880Y1106564D01*
X693820Y1106624D01*
X693791Y1106668D01*
X693776Y1106683D01*
X693701Y1106757D01*
X693627Y1106832D01*
X693434Y1107010D01*
X693196Y1107218D01*
X692973Y1107426D01*
X692750Y1107619D01*
X692572Y1107768D01*
X692498Y1107827D01*
X692438Y1107872D01*
X692409Y1107902D01*
X692394Y1107916D01*
X692156Y1108124D01*
X691948Y1108303D01*
X691740Y1108481D01*
X691562Y1108644D01*
X691398Y1108808D01*
X691250Y1108942D01*
X691101Y1109075D01*
X690982Y1109194D01*
X690878Y1109298D01*
X690789Y1109387D01*
X690655Y1109521D01*
X690581Y1109610D01*
X690551Y1109640D01*
X690358Y1109878D01*
X690180Y1110086D01*
X690046Y1110294D01*
X689942Y1110472D01*
X689853Y1110621D01*
X689793Y1110725D01*
X689764Y1110799D01*
X689749Y1110829D01*
X689660Y1111037D01*
X689600Y1111245D01*
X689556Y1111438D01*
X689526Y1111616D01*
X689511Y1111765D01*
X689496Y1111884D01*
Y1111958D01*
Y1111988D01*
X689511Y1112196D01*
X689526Y1112404D01*
X689630Y1112775D01*
X689764Y1113102D01*
X689912Y1113384D01*
X690061Y1113607D01*
X690135Y1113697D01*
X690195Y1113786D01*
X690254Y1113845D01*
X690299Y1113890D01*
X690314Y1113905D01*
X690328Y1113919D01*
X690492Y1114053D01*
X690655Y1114187D01*
X690834Y1114291D01*
X691027Y1114380D01*
X691398Y1114514D01*
X691755Y1114603D01*
X691918Y1114648D01*
X692067Y1114662D01*
X692201Y1114677D01*
X692319Y1114692D01*
X692424Y1114707D01*
X692557D01*
X692810Y1114692D01*
D02*
G37*
G36*
X677654D02*
X677891Y1114677D01*
X678337Y1114588D01*
X678530Y1114544D01*
X678724Y1114484D01*
X678887Y1114410D01*
X679036Y1114350D01*
X679169Y1114276D01*
X679288Y1114217D01*
X679392Y1114142D01*
X679481Y1114098D01*
X679541Y1114053D01*
X679585Y1114009D01*
X679615Y1113994D01*
X679630Y1113979D01*
X679779Y1113830D01*
X679897Y1113682D01*
X680120Y1113340D01*
X680284Y1112998D01*
X680403Y1112656D01*
X680492Y1112359D01*
X680507Y1112225D01*
X680536Y1112107D01*
X680551Y1112018D01*
X680566Y1111943D01*
Y1111899D01*
Y1111884D01*
X679333Y1111750D01*
X679303Y1112077D01*
X679244Y1112359D01*
X679169Y1112597D01*
X679065Y1112805D01*
X678976Y1112968D01*
X678887Y1113087D01*
X678828Y1113147D01*
X678813Y1113176D01*
X678605Y1113355D01*
X678382Y1113488D01*
X678144Y1113578D01*
X677921Y1113652D01*
X677728Y1113682D01*
X677579Y1113697D01*
X677520Y1113711D01*
X677431D01*
X677134Y1113697D01*
X676866Y1113637D01*
X676643Y1113563D01*
X676450Y1113474D01*
X676301Y1113370D01*
X676183Y1113295D01*
X676123Y1113236D01*
X676094Y1113221D01*
X675915Y1113028D01*
X675796Y1112820D01*
X675707Y1112627D01*
X675633Y1112433D01*
X675603Y1112270D01*
X675588Y1112136D01*
X675574Y1112047D01*
Y1112032D01*
Y1112018D01*
X675603Y1111765D01*
X675663Y1111497D01*
X675752Y1111260D01*
X675856Y1111037D01*
X675960Y1110844D01*
X676049Y1110695D01*
X676079Y1110636D01*
X676108Y1110591D01*
X676138Y1110576D01*
Y1110561D01*
X676257Y1110413D01*
X676391Y1110249D01*
X676539Y1110086D01*
X676718Y1109922D01*
X677074Y1109581D01*
X677431Y1109239D01*
X677758Y1108957D01*
X677906Y1108823D01*
X678040Y1108719D01*
X678144Y1108615D01*
X678218Y1108555D01*
X678278Y1108511D01*
X678293Y1108496D01*
X678649Y1108184D01*
X678976Y1107902D01*
X679244Y1107649D01*
X679466Y1107441D01*
X679645Y1107263D01*
X679764Y1107129D01*
X679838Y1107040D01*
X679868Y1107025D01*
Y1107010D01*
X680061Y1106772D01*
X680210Y1106549D01*
X680358Y1106327D01*
X680462Y1106133D01*
X680551Y1105955D01*
X680611Y1105836D01*
X680640Y1105747D01*
X680655Y1105732D01*
Y1105717D01*
X680700Y1105569D01*
X680744Y1105420D01*
X680759Y1105286D01*
X680774Y1105167D01*
X680789Y1105063D01*
Y1104974D01*
Y1104915D01*
Y1104900D01*
X674325D01*
Y1106044D01*
X679125D01*
X678961Y1106282D01*
X678798Y1106475D01*
X678724Y1106564D01*
X678664Y1106624D01*
X678634Y1106668D01*
X678620Y1106683D01*
X678545Y1106757D01*
X678471Y1106832D01*
X678278Y1107010D01*
X678040Y1107218D01*
X677817Y1107426D01*
X677594Y1107619D01*
X677416Y1107768D01*
X677342Y1107827D01*
X677282Y1107872D01*
X677253Y1107902D01*
X677238Y1107916D01*
X677000Y1108124D01*
X676792Y1108303D01*
X676584Y1108481D01*
X676406Y1108644D01*
X676242Y1108808D01*
X676094Y1108942D01*
X675945Y1109075D01*
X675826Y1109194D01*
X675722Y1109298D01*
X675633Y1109387D01*
X675499Y1109521D01*
X675425Y1109610D01*
X675395Y1109640D01*
X675202Y1109878D01*
X675024Y1110086D01*
X674890Y1110294D01*
X674786Y1110472D01*
X674697Y1110621D01*
X674637Y1110725D01*
X674608Y1110799D01*
X674593Y1110829D01*
X674504Y1111037D01*
X674444Y1111245D01*
X674400Y1111438D01*
X674370Y1111616D01*
X674355Y1111765D01*
X674340Y1111884D01*
Y1111958D01*
Y1111988D01*
X674355Y1112196D01*
X674370Y1112404D01*
X674474Y1112775D01*
X674608Y1113102D01*
X674756Y1113384D01*
X674905Y1113607D01*
X674979Y1113697D01*
X675039Y1113786D01*
X675098Y1113845D01*
X675143Y1113890D01*
X675157Y1113905D01*
X675172Y1113919D01*
X675336Y1114053D01*
X675499Y1114187D01*
X675677Y1114291D01*
X675871Y1114380D01*
X676242Y1114514D01*
X676599Y1114603D01*
X676762Y1114648D01*
X676911Y1114662D01*
X677045Y1114677D01*
X677163Y1114692D01*
X677267Y1114707D01*
X677401D01*
X677654Y1114692D01*
D02*
G37*
G36*
X670076D02*
X670313Y1114677D01*
X670759Y1114588D01*
X670952Y1114544D01*
X671145Y1114484D01*
X671309Y1114410D01*
X671458Y1114350D01*
X671591Y1114276D01*
X671710Y1114217D01*
X671814Y1114142D01*
X671903Y1114098D01*
X671963Y1114053D01*
X672007Y1114009D01*
X672037Y1113994D01*
X672052Y1113979D01*
X672200Y1113830D01*
X672319Y1113682D01*
X672542Y1113340D01*
X672706Y1112998D01*
X672824Y1112656D01*
X672914Y1112359D01*
X672928Y1112225D01*
X672958Y1112107D01*
X672973Y1112018D01*
X672988Y1111943D01*
Y1111899D01*
Y1111884D01*
X671755Y1111750D01*
X671725Y1112077D01*
X671665Y1112359D01*
X671591Y1112597D01*
X671487Y1112805D01*
X671398Y1112968D01*
X671309Y1113087D01*
X671249Y1113147D01*
X671235Y1113176D01*
X671027Y1113355D01*
X670804Y1113488D01*
X670566Y1113578D01*
X670343Y1113652D01*
X670150Y1113682D01*
X670001Y1113697D01*
X669942Y1113711D01*
X669853D01*
X669556Y1113697D01*
X669288Y1113637D01*
X669065Y1113563D01*
X668872Y1113474D01*
X668724Y1113370D01*
X668605Y1113295D01*
X668545Y1113236D01*
X668515Y1113221D01*
X668337Y1113028D01*
X668218Y1112820D01*
X668129Y1112627D01*
X668055Y1112433D01*
X668025Y1112270D01*
X668010Y1112136D01*
X667995Y1112047D01*
Y1112032D01*
Y1112018D01*
X668025Y1111765D01*
X668084Y1111497D01*
X668174Y1111260D01*
X668278Y1111037D01*
X668382Y1110844D01*
X668471Y1110695D01*
X668501Y1110636D01*
X668530Y1110591D01*
X668560Y1110576D01*
Y1110561D01*
X668679Y1110413D01*
X668813Y1110249D01*
X668961Y1110086D01*
X669139Y1109922D01*
X669496Y1109581D01*
X669853Y1109239D01*
X670180Y1108957D01*
X670328Y1108823D01*
X670462Y1108719D01*
X670566Y1108615D01*
X670640Y1108555D01*
X670700Y1108511D01*
X670715Y1108496D01*
X671071Y1108184D01*
X671398Y1107902D01*
X671665Y1107649D01*
X671888Y1107441D01*
X672067Y1107263D01*
X672186Y1107129D01*
X672260Y1107040D01*
X672290Y1107025D01*
Y1107010D01*
X672483Y1106772D01*
X672631Y1106549D01*
X672780Y1106327D01*
X672884Y1106133D01*
X672973Y1105955D01*
X673033Y1105836D01*
X673062Y1105747D01*
X673077Y1105732D01*
Y1105717D01*
X673122Y1105569D01*
X673166Y1105420D01*
X673181Y1105286D01*
X673196Y1105167D01*
X673211Y1105063D01*
Y1104974D01*
Y1104915D01*
Y1104900D01*
X666747D01*
Y1106044D01*
X671547D01*
X671383Y1106282D01*
X671220Y1106475D01*
X671145Y1106564D01*
X671086Y1106624D01*
X671056Y1106668D01*
X671041Y1106683D01*
X670967Y1106757D01*
X670893Y1106832D01*
X670700Y1107010D01*
X670462Y1107218D01*
X670239Y1107426D01*
X670016Y1107619D01*
X669838Y1107768D01*
X669764Y1107827D01*
X669704Y1107872D01*
X669674Y1107902D01*
X669660Y1107916D01*
X669422Y1108124D01*
X669214Y1108303D01*
X669006Y1108481D01*
X668828Y1108644D01*
X668664Y1108808D01*
X668515Y1108942D01*
X668367Y1109075D01*
X668248Y1109194D01*
X668144Y1109298D01*
X668055Y1109387D01*
X667921Y1109521D01*
X667847Y1109610D01*
X667817Y1109640D01*
X667624Y1109878D01*
X667446Y1110086D01*
X667312Y1110294D01*
X667208Y1110472D01*
X667119Y1110621D01*
X667059Y1110725D01*
X667029Y1110799D01*
X667015Y1110829D01*
X666926Y1111037D01*
X666866Y1111245D01*
X666822Y1111438D01*
X666792Y1111616D01*
X666777Y1111765D01*
X666762Y1111884D01*
Y1111958D01*
Y1111988D01*
X666777Y1112196D01*
X666792Y1112404D01*
X666896Y1112775D01*
X667029Y1113102D01*
X667178Y1113384D01*
X667327Y1113607D01*
X667401Y1113697D01*
X667460Y1113786D01*
X667520Y1113845D01*
X667564Y1113890D01*
X667579Y1113905D01*
X667594Y1113919D01*
X667758Y1114053D01*
X667921Y1114187D01*
X668099Y1114291D01*
X668292Y1114380D01*
X668664Y1114514D01*
X669021Y1114603D01*
X669184Y1114648D01*
X669333Y1114662D01*
X669466Y1114677D01*
X669585Y1114692D01*
X669689Y1114707D01*
X669823D01*
X670076Y1114692D01*
D02*
G37*
G36*
X639763D02*
X640001Y1114677D01*
X640447Y1114588D01*
X640640Y1114544D01*
X640833Y1114484D01*
X640997Y1114410D01*
X641145Y1114350D01*
X641279Y1114276D01*
X641398Y1114217D01*
X641502Y1114142D01*
X641591Y1114098D01*
X641650Y1114053D01*
X641695Y1114009D01*
X641725Y1113994D01*
X641740Y1113979D01*
X641888Y1113830D01*
X642007Y1113682D01*
X642230Y1113340D01*
X642393Y1112998D01*
X642512Y1112656D01*
X642601Y1112359D01*
X642616Y1112225D01*
X642646Y1112107D01*
X642661Y1112018D01*
X642676Y1111943D01*
Y1111899D01*
Y1111884D01*
X641442Y1111750D01*
X641413Y1112077D01*
X641353Y1112359D01*
X641279Y1112597D01*
X641175Y1112805D01*
X641086Y1112968D01*
X640997Y1113087D01*
X640937Y1113147D01*
X640922Y1113176D01*
X640714Y1113355D01*
X640491Y1113488D01*
X640254Y1113578D01*
X640031Y1113652D01*
X639838Y1113682D01*
X639689Y1113697D01*
X639630Y1113711D01*
X639540D01*
X639243Y1113697D01*
X638976Y1113637D01*
X638753Y1113563D01*
X638560Y1113474D01*
X638411Y1113370D01*
X638292Y1113295D01*
X638233Y1113236D01*
X638203Y1113221D01*
X638025Y1113028D01*
X637906Y1112820D01*
X637817Y1112627D01*
X637742Y1112433D01*
X637713Y1112270D01*
X637698Y1112136D01*
X637683Y1112047D01*
Y1112032D01*
Y1112018D01*
X637713Y1111765D01*
X637772Y1111497D01*
X637861Y1111260D01*
X637965Y1111037D01*
X638069Y1110844D01*
X638158Y1110695D01*
X638188Y1110636D01*
X638218Y1110591D01*
X638248Y1110576D01*
Y1110561D01*
X638367Y1110413D01*
X638500Y1110249D01*
X638649Y1110086D01*
X638827Y1109922D01*
X639184Y1109581D01*
X639540Y1109239D01*
X639867Y1108957D01*
X640016Y1108823D01*
X640150Y1108719D01*
X640254Y1108615D01*
X640328Y1108555D01*
X640387Y1108511D01*
X640402Y1108496D01*
X640759Y1108184D01*
X641086Y1107902D01*
X641353Y1107649D01*
X641576Y1107441D01*
X641754Y1107263D01*
X641873Y1107129D01*
X641947Y1107040D01*
X641977Y1107025D01*
Y1107010D01*
X642170Y1106772D01*
X642319Y1106549D01*
X642468Y1106327D01*
X642572Y1106133D01*
X642661Y1105955D01*
X642720Y1105836D01*
X642750Y1105747D01*
X642765Y1105732D01*
Y1105717D01*
X642809Y1105569D01*
X642854Y1105420D01*
X642869Y1105286D01*
X642884Y1105167D01*
X642898Y1105063D01*
Y1104974D01*
Y1104915D01*
Y1104900D01*
X636435D01*
Y1106044D01*
X641234D01*
X641071Y1106282D01*
X640907Y1106475D01*
X640833Y1106564D01*
X640774Y1106624D01*
X640744Y1106668D01*
X640729Y1106683D01*
X640655Y1106757D01*
X640581Y1106832D01*
X640387Y1107010D01*
X640150Y1107218D01*
X639927Y1107426D01*
X639704Y1107619D01*
X639525Y1107768D01*
X639451Y1107827D01*
X639392Y1107872D01*
X639362Y1107902D01*
X639347Y1107916D01*
X639109Y1108124D01*
X638901Y1108303D01*
X638693Y1108481D01*
X638515Y1108644D01*
X638352Y1108808D01*
X638203Y1108942D01*
X638055Y1109075D01*
X637936Y1109194D01*
X637832Y1109298D01*
X637742Y1109387D01*
X637609Y1109521D01*
X637534Y1109610D01*
X637505Y1109640D01*
X637312Y1109878D01*
X637133Y1110086D01*
X637000Y1110294D01*
X636895Y1110472D01*
X636806Y1110621D01*
X636747Y1110725D01*
X636717Y1110799D01*
X636702Y1110829D01*
X636613Y1111037D01*
X636554Y1111245D01*
X636509Y1111438D01*
X636479Y1111616D01*
X636465Y1111765D01*
X636450Y1111884D01*
Y1111958D01*
Y1111988D01*
X636465Y1112196D01*
X636479Y1112404D01*
X636583Y1112775D01*
X636717Y1113102D01*
X636866Y1113384D01*
X637014Y1113607D01*
X637089Y1113697D01*
X637148Y1113786D01*
X637207Y1113845D01*
X637252Y1113890D01*
X637267Y1113905D01*
X637282Y1113919D01*
X637445Y1114053D01*
X637609Y1114187D01*
X637787Y1114291D01*
X637980Y1114380D01*
X638352Y1114514D01*
X638708Y1114603D01*
X638872Y1114648D01*
X639020Y1114662D01*
X639154Y1114677D01*
X639273Y1114692D01*
X639377Y1114707D01*
X639511D01*
X639763Y1114692D01*
D02*
G37*
G36*
X635558Y1108332D02*
Y1107233D01*
X631323D01*
Y1104900D01*
X630120D01*
Y1107233D01*
X628797D01*
Y1108332D01*
X630120D01*
Y1114648D01*
X631101D01*
X635558Y1108332D01*
D02*
G37*
G36*
X685410Y1114677D02*
X685752Y1114618D01*
X686064Y1114529D01*
X686317Y1114425D01*
X686525Y1114306D01*
X686673Y1114217D01*
X686733Y1114187D01*
X686777Y1114157D01*
X686792Y1114127D01*
X686807D01*
X687059Y1113890D01*
X687268Y1113637D01*
X687446Y1113370D01*
X687594Y1113102D01*
X687713Y1112864D01*
X687758Y1112760D01*
X687787Y1112671D01*
X687817Y1112597D01*
X687847Y1112538D01*
X687862Y1112508D01*
Y1112493D01*
X687921Y1112285D01*
X687981Y1112077D01*
X688055Y1111616D01*
X688114Y1111156D01*
X688159Y1110710D01*
X688174Y1110502D01*
X688189Y1110309D01*
Y1110145D01*
X688204Y1109997D01*
Y1109878D01*
Y1109789D01*
Y1109729D01*
Y1109714D01*
X688189Y1109224D01*
X688159Y1108748D01*
X688114Y1108332D01*
X688055Y1107931D01*
X687981Y1107575D01*
X687906Y1107248D01*
X687817Y1106951D01*
X687728Y1106698D01*
X687639Y1106460D01*
X687550Y1106267D01*
X687476Y1106104D01*
X687401Y1105970D01*
X687342Y1105866D01*
X687297Y1105791D01*
X687268Y1105747D01*
X687253Y1105732D01*
X687089Y1105554D01*
X686926Y1105405D01*
X686747Y1105272D01*
X686554Y1105153D01*
X686376Y1105063D01*
X686183Y1104974D01*
X685826Y1104855D01*
X685663Y1104826D01*
X685514Y1104796D01*
X685380Y1104766D01*
X685262Y1104751D01*
X685157Y1104737D01*
X685024D01*
X684637Y1104766D01*
X684296Y1104826D01*
X683998Y1104915D01*
X683731Y1105019D01*
X683538Y1105123D01*
X683374Y1105212D01*
X683330Y1105257D01*
X683285Y1105272D01*
X683270Y1105301D01*
X683256D01*
X683003Y1105539D01*
X682795Y1105806D01*
X682617Y1106074D01*
X682468Y1106341D01*
X682349Y1106579D01*
X682305Y1106668D01*
X682260Y1106757D01*
X682230Y1106832D01*
X682215Y1106891D01*
X682201Y1106921D01*
Y1106936D01*
X682141Y1107144D01*
X682082Y1107352D01*
X681992Y1107812D01*
X681933Y1108273D01*
X681889Y1108719D01*
X681874Y1108927D01*
X681859Y1109120D01*
Y1109283D01*
X681844Y1109432D01*
Y1109551D01*
Y1109640D01*
Y1109699D01*
Y1109714D01*
X681859Y1110234D01*
Y1110457D01*
X681874Y1110680D01*
X681889Y1110888D01*
X681918Y1111081D01*
X681933Y1111245D01*
X681948Y1111408D01*
X681978Y1111542D01*
X681992Y1111676D01*
X682007Y1111780D01*
X682037Y1111854D01*
X682052Y1111928D01*
Y1111973D01*
X682067Y1112003D01*
Y1112018D01*
X682156Y1112329D01*
X682260Y1112612D01*
X682364Y1112864D01*
X682453Y1113072D01*
X682542Y1113236D01*
X682617Y1113370D01*
X682661Y1113444D01*
X682676Y1113474D01*
X682825Y1113682D01*
X682988Y1113860D01*
X683151Y1114023D01*
X683300Y1114157D01*
X683449Y1114246D01*
X683553Y1114321D01*
X683627Y1114365D01*
X683657Y1114380D01*
X683880Y1114484D01*
X684117Y1114573D01*
X684355Y1114633D01*
X684563Y1114662D01*
X684742Y1114692D01*
X684890Y1114707D01*
X685024D01*
X685410Y1114677D01*
D02*
G37*
G36*
X666034Y1104737D02*
X665083D01*
X662260Y1114826D01*
X663211D01*
X666034Y1104737D01*
D02*
G37*
G36*
X658887Y1114677D02*
X659229Y1114618D01*
X659541Y1114529D01*
X659793Y1114425D01*
X660001Y1114306D01*
X660150Y1114217D01*
X660209Y1114187D01*
X660254Y1114157D01*
X660269Y1114127D01*
X660284D01*
X660536Y1113890D01*
X660744Y1113637D01*
X660922Y1113370D01*
X661071Y1113102D01*
X661190Y1112864D01*
X661235Y1112760D01*
X661264Y1112671D01*
X661294Y1112597D01*
X661324Y1112538D01*
X661339Y1112508D01*
Y1112493D01*
X661398Y1112285D01*
X661457Y1112077D01*
X661532Y1111616D01*
X661591Y1111156D01*
X661636Y1110710D01*
X661651Y1110502D01*
X661665Y1110309D01*
Y1110145D01*
X661680Y1109997D01*
Y1109878D01*
Y1109789D01*
Y1109729D01*
Y1109714D01*
X661665Y1109224D01*
X661636Y1108748D01*
X661591Y1108332D01*
X661532Y1107931D01*
X661457Y1107575D01*
X661383Y1107248D01*
X661294Y1106951D01*
X661205Y1106698D01*
X661116Y1106460D01*
X661027Y1106267D01*
X660952Y1106104D01*
X660878Y1105970D01*
X660818Y1105866D01*
X660774Y1105791D01*
X660744Y1105747D01*
X660729Y1105732D01*
X660566Y1105554D01*
X660402Y1105405D01*
X660224Y1105272D01*
X660031Y1105153D01*
X659853Y1105063D01*
X659660Y1104974D01*
X659303Y1104855D01*
X659139Y1104826D01*
X658991Y1104796D01*
X658857Y1104766D01*
X658738Y1104751D01*
X658634Y1104737D01*
X658501D01*
X658114Y1104766D01*
X657772Y1104826D01*
X657475Y1104915D01*
X657208Y1105019D01*
X657015Y1105123D01*
X656851Y1105212D01*
X656806Y1105257D01*
X656762Y1105272D01*
X656747Y1105301D01*
X656732D01*
X656480Y1105539D01*
X656272Y1105806D01*
X656093Y1106074D01*
X655945Y1106341D01*
X655826Y1106579D01*
X655781Y1106668D01*
X655737Y1106757D01*
X655707Y1106832D01*
X655692Y1106891D01*
X655677Y1106921D01*
Y1106936D01*
X655618Y1107144D01*
X655558Y1107352D01*
X655469Y1107812D01*
X655410Y1108273D01*
X655365Y1108719D01*
X655350Y1108927D01*
X655335Y1109120D01*
Y1109283D01*
X655321Y1109432D01*
Y1109551D01*
Y1109640D01*
Y1109699D01*
Y1109714D01*
X655335Y1110234D01*
Y1110457D01*
X655350Y1110680D01*
X655365Y1110888D01*
X655395Y1111081D01*
X655410Y1111245D01*
X655425Y1111408D01*
X655454Y1111542D01*
X655469Y1111676D01*
X655484Y1111780D01*
X655514Y1111854D01*
X655529Y1111928D01*
Y1111973D01*
X655544Y1112003D01*
Y1112018D01*
X655633Y1112329D01*
X655737Y1112612D01*
X655841Y1112864D01*
X655930Y1113072D01*
X656019Y1113236D01*
X656093Y1113370D01*
X656138Y1113444D01*
X656153Y1113474D01*
X656301Y1113682D01*
X656465Y1113860D01*
X656628Y1114023D01*
X656777Y1114157D01*
X656925Y1114246D01*
X657029Y1114321D01*
X657104Y1114365D01*
X657133Y1114380D01*
X657356Y1114484D01*
X657594Y1114573D01*
X657832Y1114633D01*
X658040Y1114662D01*
X658218Y1114692D01*
X658367Y1114707D01*
X658501D01*
X658887Y1114677D01*
D02*
G37*
G36*
X651175Y1114692D02*
X651383Y1114677D01*
X651784Y1114588D01*
X652141Y1114484D01*
X652423Y1114350D01*
X652557Y1114276D01*
X652661Y1114217D01*
X652750Y1114142D01*
X652839Y1114098D01*
X652899Y1114053D01*
X652943Y1114009D01*
X652958Y1113994D01*
X652973Y1113979D01*
X653107Y1113845D01*
X653225Y1113697D01*
X653329Y1113548D01*
X653404Y1113384D01*
X653552Y1113087D01*
X653642Y1112805D01*
X653686Y1112552D01*
X653701Y1112448D01*
X653716Y1112359D01*
X653731Y1112285D01*
Y1112225D01*
Y1112196D01*
Y1112181D01*
X653716Y1111928D01*
X653671Y1111705D01*
X653612Y1111497D01*
X653552Y1111319D01*
X653493Y1111171D01*
X653434Y1111067D01*
X653389Y1111007D01*
X653374Y1110977D01*
X653225Y1110799D01*
X653047Y1110650D01*
X652869Y1110517D01*
X652676Y1110398D01*
X652512Y1110323D01*
X652379Y1110249D01*
X652289Y1110219D01*
X652274Y1110205D01*
X652260D01*
X652572Y1110101D01*
X652854Y1109967D01*
X653092Y1109818D01*
X653285Y1109670D01*
X653434Y1109536D01*
X653552Y1109417D01*
X653612Y1109343D01*
X653642Y1109328D01*
Y1109313D01*
X653805Y1109061D01*
X653909Y1108793D01*
X653998Y1108526D01*
X654058Y1108273D01*
X654087Y1108065D01*
X654102Y1107961D01*
Y1107887D01*
X654117Y1107812D01*
Y1107768D01*
Y1107738D01*
Y1107723D01*
X654102Y1107486D01*
X654072Y1107263D01*
X654043Y1107055D01*
X653983Y1106846D01*
X653835Y1106490D01*
X653760Y1106327D01*
X653671Y1106178D01*
X653597Y1106044D01*
X653523Y1105925D01*
X653448Y1105821D01*
X653374Y1105732D01*
X653315Y1105673D01*
X653285Y1105628D01*
X653255Y1105598D01*
X653240Y1105583D01*
X653062Y1105435D01*
X652884Y1105301D01*
X652691Y1105197D01*
X652497Y1105093D01*
X652304Y1105019D01*
X652111Y1104945D01*
X651740Y1104841D01*
X651561Y1104811D01*
X651413Y1104781D01*
X651264Y1104766D01*
X651145Y1104751D01*
X651041Y1104737D01*
X650908D01*
X650640Y1104751D01*
X650387Y1104766D01*
X650150Y1104811D01*
X649942Y1104870D01*
X649734Y1104930D01*
X649540Y1105004D01*
X649362Y1105078D01*
X649199Y1105167D01*
X649050Y1105242D01*
X648931Y1105316D01*
X648827Y1105390D01*
X648738Y1105450D01*
X648664Y1105509D01*
X648619Y1105554D01*
X648589Y1105569D01*
X648575Y1105583D01*
X648411Y1105747D01*
X648278Y1105910D01*
X648159Y1106089D01*
X648055Y1106267D01*
X647965Y1106445D01*
X647906Y1106624D01*
X647787Y1106951D01*
X647728Y1107248D01*
X647713Y1107382D01*
X647698Y1107486D01*
X647683Y1107575D01*
Y1107634D01*
Y1107679D01*
Y1107693D01*
X647698Y1108020D01*
X647757Y1108318D01*
X647832Y1108585D01*
X647921Y1108808D01*
X648010Y1109001D01*
X648084Y1109135D01*
X648144Y1109224D01*
X648159Y1109254D01*
X648352Y1109477D01*
X648575Y1109685D01*
X648798Y1109848D01*
X649020Y1109982D01*
X649214Y1110071D01*
X649377Y1110145D01*
X649436Y1110175D01*
X649481Y1110190D01*
X649511Y1110205D01*
X649526D01*
X649273Y1110309D01*
X649050Y1110442D01*
X648857Y1110561D01*
X648708Y1110680D01*
X648589Y1110799D01*
X648500Y1110888D01*
X648456Y1110948D01*
X648441Y1110963D01*
X648322Y1111156D01*
X648233Y1111364D01*
X648174Y1111557D01*
X648129Y1111750D01*
X648099Y1111913D01*
X648084Y1112032D01*
Y1112122D01*
Y1112151D01*
X648099Y1112344D01*
X648114Y1112538D01*
X648203Y1112879D01*
X648337Y1113191D01*
X648471Y1113459D01*
X648619Y1113667D01*
X648693Y1113756D01*
X648753Y1113830D01*
X648798Y1113890D01*
X648842Y1113934D01*
X648857Y1113949D01*
X648872Y1113964D01*
X649020Y1114098D01*
X649184Y1114217D01*
X649347Y1114306D01*
X649526Y1114395D01*
X649867Y1114529D01*
X650194Y1114618D01*
X650491Y1114662D01*
X650610Y1114692D01*
X650729D01*
X650818Y1114707D01*
X650937D01*
X651175Y1114692D01*
D02*
G37*
G36*
X647089Y1104737D02*
X646138D01*
X643315Y1114826D01*
X644266D01*
X647089Y1104737D01*
D02*
G37*
%LPC*%
G36*
X694667Y1131298D02*
X692364D01*
X692052Y1131268D01*
X691799Y1131254D01*
X691591Y1131224D01*
X691443Y1131194D01*
X691339Y1131179D01*
X691265Y1131150D01*
X691250D01*
X691101Y1131090D01*
X690967Y1131016D01*
X690848Y1130927D01*
X690759Y1130853D01*
X690685Y1130763D01*
X690626Y1130704D01*
X690596Y1130659D01*
X690581Y1130644D01*
X690507Y1130496D01*
X690447Y1130347D01*
X690403Y1130213D01*
X690373Y1130080D01*
X690358Y1129961D01*
X690343Y1129872D01*
Y1129798D01*
Y1129783D01*
X690358Y1129589D01*
X690388Y1129426D01*
X690418Y1129277D01*
X690462Y1129158D01*
X690522Y1129054D01*
X690551Y1128980D01*
X690581Y1128936D01*
X690596Y1128921D01*
X690700Y1128802D01*
X690819Y1128698D01*
X690938Y1128609D01*
X691057Y1128549D01*
X691175Y1128490D01*
X691265Y1128460D01*
X691324Y1128445D01*
X691339Y1128430D01*
X691502Y1128401D01*
X691681Y1128371D01*
X691889Y1128356D01*
X692097Y1128341D01*
X692275Y1128326D01*
X694667D01*
Y1131298D01*
D02*
G37*
G36*
Y1127182D02*
X692097D01*
X691799Y1127153D01*
X691562Y1127138D01*
X691354Y1127108D01*
X691205Y1127078D01*
X691086Y1127048D01*
X691027Y1127034D01*
X690997Y1127019D01*
X690819Y1126945D01*
X690670Y1126855D01*
X690536Y1126766D01*
X690433Y1126662D01*
X690343Y1126573D01*
X690269Y1126514D01*
X690239Y1126454D01*
X690224Y1126439D01*
X690120Y1126291D01*
X690046Y1126127D01*
X690002Y1125964D01*
X689957Y1125815D01*
X689942Y1125696D01*
X689927Y1125592D01*
Y1125533D01*
Y1125503D01*
X689942Y1125325D01*
X689957Y1125176D01*
X689987Y1125028D01*
X690016Y1124909D01*
X690061Y1124805D01*
X690091Y1124731D01*
X690106Y1124686D01*
X690120Y1124671D01*
X690195Y1124552D01*
X690284Y1124433D01*
X690358Y1124344D01*
X690447Y1124270D01*
X690522Y1124196D01*
X690566Y1124151D01*
X690611Y1124136D01*
X690626Y1124121D01*
X690863Y1124003D01*
X691101Y1123928D01*
X691205Y1123898D01*
X691294Y1123884D01*
X691354Y1123869D01*
X691369D01*
X691473Y1123854D01*
X691606Y1123839D01*
X691904Y1123824D01*
X694667D01*
Y1127182D01*
D02*
G37*
G36*
X661487Y1131491D02*
X661413D01*
X661264Y1131477D01*
X661116Y1131462D01*
X660848Y1131373D01*
X660610Y1131239D01*
X660402Y1131090D01*
X660239Y1130942D01*
X660120Y1130808D01*
X660046Y1130719D01*
X660016Y1130704D01*
Y1130689D01*
X659912Y1130526D01*
X659823Y1130332D01*
X659749Y1130109D01*
X659689Y1129857D01*
X659585Y1129337D01*
X659526Y1128802D01*
X659496Y1128534D01*
X659481Y1128297D01*
X659466Y1128074D01*
Y1127881D01*
X659451Y1127717D01*
Y1127598D01*
Y1127524D01*
Y1127494D01*
Y1127063D01*
X659481Y1126662D01*
X659496Y1126306D01*
X659541Y1125979D01*
X659585Y1125682D01*
X659630Y1125414D01*
X659674Y1125191D01*
X659734Y1124983D01*
X659793Y1124820D01*
X659838Y1124671D01*
X659882Y1124537D01*
X659927Y1124448D01*
X659957Y1124374D01*
X659986Y1124329D01*
X660016Y1124300D01*
Y1124285D01*
X660120Y1124151D01*
X660239Y1124032D01*
X660358Y1123913D01*
X660477Y1123824D01*
X660700Y1123690D01*
X660922Y1123601D01*
X661116Y1123542D01*
X661264Y1123512D01*
X661324Y1123497D01*
X661398D01*
X661547Y1123512D01*
X661695Y1123527D01*
X661963Y1123616D01*
X662200Y1123750D01*
X662408Y1123898D01*
X662572Y1124032D01*
X662691Y1124166D01*
X662765Y1124255D01*
X662795Y1124270D01*
Y1124285D01*
X662884Y1124448D01*
X662973Y1124656D01*
X663047Y1124879D01*
X663107Y1125117D01*
X663211Y1125652D01*
X663270Y1126187D01*
X663300Y1126439D01*
X663315Y1126692D01*
X663330Y1126915D01*
Y1127108D01*
X663344Y1127271D01*
Y1127390D01*
Y1127465D01*
Y1127494D01*
Y1127925D01*
X663315Y1128326D01*
X663285Y1128683D01*
X663255Y1129010D01*
X663196Y1129322D01*
X663151Y1129589D01*
X663092Y1129827D01*
X663033Y1130035D01*
X662988Y1130213D01*
X662928Y1130377D01*
X662869Y1130496D01*
X662824Y1130600D01*
X662795Y1130674D01*
X662765Y1130734D01*
X662735Y1130763D01*
Y1130778D01*
X662646Y1130897D01*
X662542Y1131016D01*
X662319Y1131194D01*
X662096Y1131313D01*
X661888Y1131402D01*
X661695Y1131462D01*
X661547Y1131477D01*
X661487Y1131491D01*
D02*
G37*
G36*
X681183Y1090671D02*
Y1090226D01*
X681198Y1089943D01*
X681213Y1089706D01*
X681243Y1089497D01*
X681272Y1089319D01*
X681317Y1089185D01*
X681347Y1089096D01*
X681361Y1089037D01*
X681376Y1089022D01*
X681480Y1088829D01*
X681614Y1088665D01*
X681748Y1088517D01*
X681867Y1088413D01*
X681986Y1088309D01*
X682090Y1088249D01*
X682149Y1088205D01*
X682179Y1088190D01*
X682387Y1088086D01*
X682595Y1088011D01*
X682803Y1087967D01*
X682981Y1087937D01*
X683159Y1087907D01*
X683278Y1087893D01*
X683397D01*
X683650Y1087907D01*
X683858Y1087937D01*
X684051Y1087997D01*
X684200Y1088056D01*
X684318Y1088101D01*
X684393Y1088160D01*
X684452Y1088190D01*
X684467Y1088205D01*
X684586Y1088338D01*
X684675Y1088472D01*
X684734Y1088606D01*
X684779Y1088725D01*
X684809Y1088844D01*
X684824Y1088933D01*
Y1088992D01*
Y1089007D01*
X684809Y1089126D01*
X684794Y1089230D01*
X684734Y1089408D01*
X684705Y1089483D01*
X684690Y1089527D01*
X684660Y1089557D01*
Y1089572D01*
X684512Y1089750D01*
X684363Y1089869D01*
X684304Y1089913D01*
X684244Y1089943D01*
X684214Y1089973D01*
X684200D01*
X684066Y1090017D01*
X683902Y1090062D01*
X683561Y1090136D01*
X683397Y1090166D01*
X683263Y1090196D01*
X683174Y1090211D01*
X683145D01*
X682907Y1090255D01*
X682684Y1090285D01*
X682476Y1090330D01*
X682283Y1090359D01*
X682104Y1090404D01*
X681956Y1090448D01*
X681807Y1090478D01*
X681674Y1090508D01*
X681555Y1090552D01*
X681466Y1090582D01*
X681376Y1090597D01*
X681302Y1090627D01*
X681257Y1090642D01*
X681213Y1090656D01*
X681183Y1090671D01*
D02*
G37*
G36*
X667706Y1093376D02*
X667632D01*
X667468Y1093361D01*
X667305Y1093346D01*
X667022Y1093272D01*
X666770Y1093153D01*
X666547Y1093019D01*
X666384Y1092885D01*
X666250Y1092781D01*
X666176Y1092692D01*
X666146Y1092677D01*
Y1092662D01*
X666012Y1092484D01*
X665923Y1092261D01*
X665834Y1092038D01*
X665774Y1091830D01*
X665730Y1091637D01*
X665700Y1091474D01*
Y1091414D01*
X665685Y1091370D01*
Y1091340D01*
Y1091325D01*
X669638D01*
X669593Y1091652D01*
X669519Y1091949D01*
X669415Y1092202D01*
X669311Y1092410D01*
X669207Y1092588D01*
X669118Y1092707D01*
X669058Y1092781D01*
X669028Y1092811D01*
X668806Y1093004D01*
X668568Y1093138D01*
X668345Y1093242D01*
X668122Y1093301D01*
X667929Y1093346D01*
X667766Y1093361D01*
X667706Y1093376D01*
D02*
G37*
G36*
X693397Y1095738D02*
X691094D01*
X690782Y1095708D01*
X690529Y1095694D01*
X690322Y1095664D01*
X690173Y1095634D01*
X690069Y1095619D01*
X689995Y1095590D01*
X689980D01*
X689831Y1095530D01*
X689697Y1095456D01*
X689578Y1095367D01*
X689489Y1095292D01*
X689415Y1095203D01*
X689356Y1095144D01*
X689326Y1095099D01*
X689311Y1095084D01*
X689237Y1094936D01*
X689177Y1094787D01*
X689133Y1094653D01*
X689103Y1094520D01*
X689088Y1094401D01*
X689073Y1094312D01*
Y1094238D01*
Y1094223D01*
X689088Y1094029D01*
X689118Y1093866D01*
X689148Y1093717D01*
X689192Y1093598D01*
X689252Y1093494D01*
X689281Y1093420D01*
X689311Y1093376D01*
X689326Y1093361D01*
X689430Y1093242D01*
X689549Y1093138D01*
X689668Y1093049D01*
X689787Y1092989D01*
X689905Y1092930D01*
X689995Y1092900D01*
X690054Y1092885D01*
X690069Y1092870D01*
X690232Y1092841D01*
X690411Y1092811D01*
X690619Y1092796D01*
X690827Y1092781D01*
X691005Y1092766D01*
X693397D01*
Y1095738D01*
D02*
G37*
G36*
Y1091622D02*
X690827D01*
X690529Y1091593D01*
X690292Y1091578D01*
X690084Y1091548D01*
X689935Y1091518D01*
X689816Y1091488D01*
X689757Y1091474D01*
X689727Y1091459D01*
X689549Y1091385D01*
X689400Y1091295D01*
X689267Y1091206D01*
X689163Y1091102D01*
X689073Y1091013D01*
X688999Y1090954D01*
X688969Y1090894D01*
X688954Y1090879D01*
X688850Y1090731D01*
X688776Y1090567D01*
X688732Y1090404D01*
X688687Y1090255D01*
X688672Y1090136D01*
X688657Y1090032D01*
Y1089973D01*
Y1089943D01*
X688672Y1089765D01*
X688687Y1089616D01*
X688717Y1089468D01*
X688746Y1089349D01*
X688791Y1089245D01*
X688821Y1089171D01*
X688836Y1089126D01*
X688850Y1089111D01*
X688925Y1088992D01*
X689014Y1088873D01*
X689088Y1088784D01*
X689177Y1088710D01*
X689252Y1088636D01*
X689296Y1088591D01*
X689341Y1088576D01*
X689356Y1088561D01*
X689593Y1088443D01*
X689831Y1088368D01*
X689935Y1088338D01*
X690024Y1088324D01*
X690084Y1088309D01*
X690099D01*
X690203Y1088294D01*
X690336Y1088279D01*
X690633Y1088264D01*
X693397D01*
Y1091622D01*
D02*
G37*
G36*
X633694Y1093361D02*
X633441D01*
X633293Y1093331D01*
X633010Y1093257D01*
X632758Y1093138D01*
X632535Y1093019D01*
X632371Y1092900D01*
X632238Y1092781D01*
X632163Y1092707D01*
X632134Y1092692D01*
Y1092677D01*
X631926Y1092395D01*
X631777Y1092083D01*
X631673Y1091741D01*
X631599Y1091429D01*
X631554Y1091132D01*
X631539Y1091013D01*
Y1090909D01*
X631524Y1090805D01*
Y1090746D01*
Y1090701D01*
Y1090686D01*
Y1090434D01*
X631554Y1090196D01*
X631584Y1089973D01*
X631614Y1089780D01*
X631658Y1089587D01*
X631718Y1089408D01*
X631762Y1089260D01*
X631822Y1089126D01*
X631881Y1089007D01*
X631926Y1088903D01*
X631985Y1088814D01*
X632030Y1088740D01*
X632059Y1088680D01*
X632089Y1088636D01*
X632119Y1088621D01*
Y1088606D01*
X632238Y1088487D01*
X632356Y1088383D01*
X632594Y1088220D01*
X632847Y1088101D01*
X633085Y1088026D01*
X633293Y1087967D01*
X633456Y1087952D01*
X633516Y1087937D01*
X633605D01*
X633768Y1087952D01*
X633932Y1087967D01*
X634214Y1088041D01*
X634481Y1088145D01*
X634689Y1088279D01*
X634868Y1088398D01*
X635001Y1088502D01*
X635076Y1088576D01*
X635105Y1088606D01*
X635209Y1088740D01*
X635299Y1088888D01*
X635447Y1089215D01*
X635536Y1089557D01*
X635611Y1089884D01*
X635655Y1090181D01*
X635670Y1090315D01*
Y1090419D01*
X635685Y1090508D01*
Y1090582D01*
Y1090627D01*
Y1090642D01*
Y1090894D01*
X635655Y1091117D01*
X635625Y1091340D01*
X635596Y1091533D01*
X635551Y1091726D01*
X635507Y1091890D01*
X635447Y1092038D01*
X635388Y1092172D01*
X635343Y1092291D01*
X635284Y1092395D01*
X635239Y1092484D01*
X635195Y1092558D01*
X635165Y1092603D01*
X635135Y1092647D01*
X635105Y1092677D01*
X634986Y1092796D01*
X634868Y1092900D01*
X634615Y1093079D01*
X634362Y1093197D01*
X634125Y1093272D01*
X633917Y1093331D01*
X633753Y1093346D01*
X633694Y1093361D01*
D02*
G37*
G36*
X611717D02*
X611465D01*
X611316Y1093331D01*
X611034Y1093257D01*
X610781Y1093138D01*
X610558Y1093019D01*
X610395Y1092900D01*
X610261Y1092781D01*
X610187Y1092707D01*
X610157Y1092692D01*
Y1092677D01*
X609949Y1092395D01*
X609800Y1092083D01*
X609697Y1091741D01*
X609622Y1091429D01*
X609578Y1091132D01*
X609563Y1091013D01*
Y1090909D01*
X609548Y1090805D01*
Y1090746D01*
Y1090701D01*
Y1090686D01*
Y1090434D01*
X609578Y1090196D01*
X609607Y1089973D01*
X609637Y1089780D01*
X609682Y1089587D01*
X609741Y1089408D01*
X609786Y1089260D01*
X609845Y1089126D01*
X609905Y1089007D01*
X609949Y1088903D01*
X610009Y1088814D01*
X610053Y1088740D01*
X610083Y1088680D01*
X610113Y1088636D01*
X610142Y1088621D01*
Y1088606D01*
X610261Y1088487D01*
X610380Y1088383D01*
X610618Y1088220D01*
X610870Y1088101D01*
X611108Y1088026D01*
X611316Y1087967D01*
X611480Y1087952D01*
X611539Y1087937D01*
X611628D01*
X611792Y1087952D01*
X611955Y1087967D01*
X612237Y1088041D01*
X612505Y1088145D01*
X612713Y1088279D01*
X612891Y1088398D01*
X613025Y1088502D01*
X613099Y1088576D01*
X613129Y1088606D01*
X613233Y1088740D01*
X613322Y1088888D01*
X613471Y1089215D01*
X613560Y1089557D01*
X613634Y1089884D01*
X613679Y1090181D01*
X613694Y1090315D01*
Y1090419D01*
X613708Y1090508D01*
Y1090582D01*
Y1090627D01*
Y1090642D01*
Y1090894D01*
X613679Y1091117D01*
X613649Y1091340D01*
X613619Y1091533D01*
X613575Y1091726D01*
X613530Y1091890D01*
X613471Y1092038D01*
X613411Y1092172D01*
X613367Y1092291D01*
X613307Y1092395D01*
X613263Y1092484D01*
X613218Y1092558D01*
X613188Y1092603D01*
X613159Y1092647D01*
X613129Y1092677D01*
X613010Y1092796D01*
X612891Y1092900D01*
X612639Y1093079D01*
X612386Y1093197D01*
X612148Y1093272D01*
X611940Y1093331D01*
X611777Y1093346D01*
X611717Y1093361D01*
D02*
G37*
G36*
X631323Y1112701D02*
Y1108332D01*
X634384D01*
X631323Y1112701D01*
D02*
G37*
G36*
X685113Y1113711D02*
X685039D01*
X684890Y1113697D01*
X684742Y1113682D01*
X684474Y1113593D01*
X684236Y1113459D01*
X684028Y1113310D01*
X683865Y1113162D01*
X683746Y1113028D01*
X683672Y1112939D01*
X683642Y1112924D01*
Y1112909D01*
X683538Y1112746D01*
X683449Y1112552D01*
X683374Y1112329D01*
X683315Y1112077D01*
X683211Y1111557D01*
X683151Y1111022D01*
X683122Y1110754D01*
X683107Y1110517D01*
X683092Y1110294D01*
Y1110101D01*
X683077Y1109937D01*
Y1109818D01*
Y1109744D01*
Y1109714D01*
Y1109283D01*
X683107Y1108882D01*
X683122Y1108526D01*
X683166Y1108199D01*
X683211Y1107902D01*
X683256Y1107634D01*
X683300Y1107411D01*
X683360Y1107203D01*
X683419Y1107040D01*
X683464Y1106891D01*
X683508Y1106757D01*
X683553Y1106668D01*
X683583Y1106594D01*
X683612Y1106549D01*
X683642Y1106520D01*
Y1106505D01*
X683746Y1106371D01*
X683865Y1106252D01*
X683984Y1106133D01*
X684102Y1106044D01*
X684325Y1105910D01*
X684548Y1105821D01*
X684742Y1105762D01*
X684890Y1105732D01*
X684949Y1105717D01*
X685024D01*
X685172Y1105732D01*
X685321Y1105747D01*
X685588Y1105836D01*
X685826Y1105970D01*
X686034Y1106118D01*
X686198Y1106252D01*
X686317Y1106386D01*
X686391Y1106475D01*
X686421Y1106490D01*
Y1106505D01*
X686510Y1106668D01*
X686599Y1106876D01*
X686673Y1107099D01*
X686733Y1107337D01*
X686837Y1107872D01*
X686896Y1108407D01*
X686926Y1108659D01*
X686941Y1108912D01*
X686955Y1109135D01*
Y1109328D01*
X686970Y1109491D01*
Y1109610D01*
Y1109685D01*
Y1109714D01*
Y1110145D01*
X686941Y1110546D01*
X686911Y1110903D01*
X686881Y1111230D01*
X686822Y1111542D01*
X686777Y1111809D01*
X686718Y1112047D01*
X686658Y1112255D01*
X686614Y1112433D01*
X686554Y1112597D01*
X686495Y1112716D01*
X686450Y1112820D01*
X686421Y1112894D01*
X686391Y1112954D01*
X686361Y1112983D01*
Y1112998D01*
X686272Y1113117D01*
X686168Y1113236D01*
X685945Y1113414D01*
X685722Y1113533D01*
X685514Y1113622D01*
X685321Y1113682D01*
X685172Y1113697D01*
X685113Y1113711D01*
D02*
G37*
G36*
X658590D02*
X658515D01*
X658367Y1113697D01*
X658218Y1113682D01*
X657951Y1113593D01*
X657713Y1113459D01*
X657505Y1113310D01*
X657342Y1113162D01*
X657223Y1113028D01*
X657148Y1112939D01*
X657119Y1112924D01*
Y1112909D01*
X657015Y1112746D01*
X656925Y1112552D01*
X656851Y1112329D01*
X656792Y1112077D01*
X656688Y1111557D01*
X656628Y1111022D01*
X656599Y1110754D01*
X656584Y1110517D01*
X656569Y1110294D01*
Y1110101D01*
X656554Y1109937D01*
Y1109818D01*
Y1109744D01*
Y1109714D01*
Y1109283D01*
X656584Y1108882D01*
X656599Y1108526D01*
X656643Y1108199D01*
X656688Y1107902D01*
X656732Y1107634D01*
X656777Y1107411D01*
X656836Y1107203D01*
X656896Y1107040D01*
X656940Y1106891D01*
X656985Y1106757D01*
X657029Y1106668D01*
X657059Y1106594D01*
X657089Y1106549D01*
X657119Y1106520D01*
Y1106505D01*
X657223Y1106371D01*
X657342Y1106252D01*
X657460Y1106133D01*
X657579Y1106044D01*
X657802Y1105910D01*
X658025Y1105821D01*
X658218Y1105762D01*
X658367Y1105732D01*
X658426Y1105717D01*
X658501D01*
X658649Y1105732D01*
X658798Y1105747D01*
X659065Y1105836D01*
X659303Y1105970D01*
X659511Y1106118D01*
X659674Y1106252D01*
X659793Y1106386D01*
X659867Y1106475D01*
X659897Y1106490D01*
Y1106505D01*
X659986Y1106668D01*
X660076Y1106876D01*
X660150Y1107099D01*
X660209Y1107337D01*
X660313Y1107872D01*
X660373Y1108407D01*
X660402Y1108659D01*
X660417Y1108912D01*
X660432Y1109135D01*
Y1109328D01*
X660447Y1109491D01*
Y1109610D01*
Y1109685D01*
Y1109714D01*
Y1110145D01*
X660417Y1110546D01*
X660388Y1110903D01*
X660358Y1111230D01*
X660298Y1111542D01*
X660254Y1111809D01*
X660194Y1112047D01*
X660135Y1112255D01*
X660090Y1112433D01*
X660031Y1112597D01*
X659971Y1112716D01*
X659927Y1112820D01*
X659897Y1112894D01*
X659867Y1112954D01*
X659838Y1112983D01*
Y1112998D01*
X659749Y1113117D01*
X659645Y1113236D01*
X659422Y1113414D01*
X659199Y1113533D01*
X658991Y1113622D01*
X658798Y1113682D01*
X658649Y1113697D01*
X658590Y1113711D01*
D02*
G37*
G36*
X651026Y1113726D02*
X650908D01*
X650655Y1113711D01*
X650447Y1113652D01*
X650254Y1113578D01*
X650090Y1113503D01*
X649957Y1113414D01*
X649853Y1113340D01*
X649793Y1113280D01*
X649778Y1113266D01*
X649630Y1113087D01*
X649511Y1112909D01*
X649436Y1112716D01*
X649377Y1112552D01*
X649347Y1112404D01*
X649318Y1112270D01*
Y1112196D01*
Y1112181D01*
Y1112166D01*
X649333Y1111943D01*
X649392Y1111735D01*
X649451Y1111542D01*
X649540Y1111393D01*
X649615Y1111260D01*
X649689Y1111171D01*
X649749Y1111111D01*
X649763Y1111096D01*
X649942Y1110948D01*
X650135Y1110844D01*
X650328Y1110769D01*
X650506Y1110725D01*
X650670Y1110695D01*
X650789Y1110665D01*
X650908D01*
X651160Y1110680D01*
X651383Y1110740D01*
X651591Y1110799D01*
X651755Y1110888D01*
X651888Y1110963D01*
X651992Y1111037D01*
X652052Y1111081D01*
X652066Y1111096D01*
X652215Y1111274D01*
X652319Y1111468D01*
X652393Y1111646D01*
X652438Y1111824D01*
X652468Y1111988D01*
X652497Y1112107D01*
Y1112196D01*
Y1112225D01*
X652483Y1112448D01*
X652423Y1112642D01*
X652349Y1112835D01*
X652274Y1112983D01*
X652185Y1113102D01*
X652126Y1113206D01*
X652066Y1113266D01*
X652052Y1113280D01*
X651873Y1113429D01*
X651680Y1113533D01*
X651487Y1113622D01*
X651309Y1113667D01*
X651145Y1113697D01*
X651026Y1113726D01*
D02*
G37*
G36*
X651012Y1109685D02*
X650937D01*
X650625Y1109655D01*
X650343Y1109595D01*
X650090Y1109506D01*
X649882Y1109402D01*
X649719Y1109283D01*
X649600Y1109194D01*
X649526Y1109135D01*
X649496Y1109105D01*
X649303Y1108882D01*
X649154Y1108644D01*
X649050Y1108407D01*
X648991Y1108184D01*
X648946Y1107976D01*
X648931Y1107827D01*
X648916Y1107768D01*
Y1107723D01*
Y1107693D01*
Y1107679D01*
X648946Y1107367D01*
X649006Y1107099D01*
X649095Y1106846D01*
X649199Y1106653D01*
X649303Y1106490D01*
X649392Y1106371D01*
X649451Y1106297D01*
X649481Y1106267D01*
X649704Y1106089D01*
X649927Y1105955D01*
X650165Y1105851D01*
X650387Y1105791D01*
X650595Y1105747D01*
X650744Y1105732D01*
X650804Y1105717D01*
X650893D01*
X651101Y1105732D01*
X651294Y1105762D01*
X651457Y1105791D01*
X651621Y1105851D01*
X651755Y1105896D01*
X651844Y1105925D01*
X651903Y1105955D01*
X651933Y1105970D01*
X652096Y1106074D01*
X652245Y1106193D01*
X652364Y1106327D01*
X652468Y1106445D01*
X652542Y1106549D01*
X652601Y1106638D01*
X652631Y1106698D01*
X652646Y1106713D01*
X652720Y1106891D01*
X652780Y1107069D01*
X652824Y1107248D01*
X652854Y1107396D01*
X652869Y1107530D01*
X652884Y1107619D01*
Y1107693D01*
Y1107708D01*
X652854Y1108006D01*
X652795Y1108288D01*
X652706Y1108526D01*
X652601Y1108734D01*
X652512Y1108897D01*
X652423Y1109016D01*
X652364Y1109090D01*
X652334Y1109120D01*
X652111Y1109313D01*
X651888Y1109447D01*
X651650Y1109551D01*
X651428Y1109610D01*
X651234Y1109655D01*
X651071Y1109670D01*
X651012Y1109685D01*
D02*
G37*
%LPD*%
D14*
X419100Y829310D02*
Y1275080D01*
X838200D01*
X838200Y829310D01*
X419100D02*
X838200D01*
M02*
