M48
;Layer_Color=9474304
;FILE_FORMAT=2:5
INCH,LZ
;TYPE=PLATED
T1F00S00C0.01181
T2F00S00C0.02362
T3F00S00C0.02559
T4F00S00C0.03000
T5F00S00C0.03543
T6F00S00C0.04016
;TYPE=NON_PLATED
T7F00S00C0.09011
%
T01
X01865Y0353
X0213Y03555
X02125Y0348
X02075Y0365
X0204Y03835
X0191Y0395
X0182Y03795
X02835Y0408
X021Y04955
X01945Y04915
T02
X0174579Y0448
X0184421
X0197579Y04475
X0207421
T03
X0174Y0395
Y0405
Y0415
Y0425
Y0435
X0204
Y0425
Y0415
Y0405
Y0395
T04
X01735Y04715
X0173Y0483
X01725Y04925
T05
X01935Y0336
X02035
T06
X01725Y03335
X0172Y0346
X022087Y0350898
Y0360898
Y0370898
Y0380898
Y0390898
Y0400898
Y0410898
Y0420898
Y0430898
Y0440898
Y0450898
Y0460898
X0186Y0463
X01915Y03815
X032087Y0380898
Y0390898
Y0400898
Y0410898
Y0420898
Y0430898
Y0440898
Y0450898
Y0460898
Y0370898
Y0360898
Y0350898
Y0470898
Y0480898
Y0490898
X022087
Y0480898
Y0470898
X02045Y04795
X0185Y04805
T07
X0222524Y0337394
X031902
Y0522236
X0222524
M30
